<?xml version="1.0" encoding="UTF-8" standalone="no"?>
<!-- Created with Inkscape (http://www.inkscape.org/) -->

<svg
   width="500"
   height="500"
   viewBox="0 0 500 500"
   version="1.1"
   id="svg1"
   inkscape:version="1.4.2 (ebf0e940d0, 2025-05-08)"
   sodipodi:docname="logo.ink.svg"
   xml:space="preserve"
   xmlns:inkscape="http://www.inkscape.org/namespaces/inkscape"
   xmlns:sodipodi="http://sodipodi.sourceforge.net/DTD/sodipodi-0.dtd"
   xmlns="http://www.w3.org/2000/svg"
   xmlns:svg="http://www.w3.org/2000/svg"><sodipodi:namedview
     id="namedview1"
     pagecolor="#110022"
     bordercolor="#221144"
     borderopacity="1"
     inkscape:showpageshadow="0"
     inkscape:pageopacity="0"
     inkscape:pagecheckerboard="1"
     inkscape:deskcolor="#111122"
     inkscape:document-units="px"
     guidehicolor="#3311ff"
     guidehiopacity="0.49803922"
     guidecolor="#dd3366"
     guideopacity="0.6"
     inkscape:zoom="0.25736697"
     inkscape:cx="2987.9514"
     inkscape:cy="1690.1936"
     inkscape:window-width="2520"
     inkscape:window-height="930"
     inkscape:window-x="1080"
     inkscape:window-y="110"
     inkscape:window-maximized="1"
     inkscape:current-layer="g15"
     showgrid="false"
     showguides="true"><sodipodi:guide
       position="1504.4586,-482.49315"
       orientation="0,-1"
       id="guide34"
       inkscape:locked="false" /></sodipodi:namedview><defs
     id="defs1" /><g
     inkscape:label="main"
     inkscape:groupmode="layer"
     id="layer1"
     style="fill:#cccc55"
     transform="translate(-804.28768,-21.239991)"><path
       sodipodi:type="star"
       style="fill:#220533;fill-opacity:1;fill-rule:evenodd;stroke:none;stroke-width:3.01607;stroke-linecap:round;stroke-dasharray:none;stroke-opacity:1"
       id="path35"
       inkscape:flatsided="true"
       sodipodi:sides="4"
       sodipodi:cx="2075.8552"
       sodipodi:cy="1301.3035"
       sodipodi:r1="421.56137"
       sodipodi:r2="298.0889"
       sodipodi:arg1="2.3680704"
       sodipodi:arg2="3.1534686"
       inkscape:rounded="0.13"
       inkscape:randomized="2.7755576e-17"
       d="m 1774.2473,1595.8314 c -54.1482,-55.45 -48.3699,-541.9875 7.08,-596.13581 55.45,-54.14829 541.9875,-48.36995 596.1358,7.08001 54.1483,55.4499 48.3699,541.9875 -7.08,596.1357 -55.4499,54.1483 -541.9875,48.37 -596.1358,-7.0799 z"
       transform="matrix(0.66311358,0,0,0.66311358,765.90726,607.57151)"
       inkscape:export-filename="favicon.png"
       inkscape:export-xdpi="27.306667"
       inkscape:export-ydpi="27.306667" /><g
       id="g35"
       transform="translate(-473.06245,360.34222)"
       inkscape:export-filename="logo.png"
       inkscape:export-xdpi="128"
       inkscape:export-ydpi="128"><path
         fill="currentColor"
         fill-rule="evenodd"
         d="m 2450.5048,967.57311 c -1.0555,3.95276 -1.0555,8.75402 -1.0555,18.37723 0,9.62322 0,14.42446 1.0555,18.37726 2.8722,10.7038 11.2329,19.0646 21.9368,21.9368 3.9527,1.0554 8.754,1.0554 18.3772,1.0554 9.6232,0 14.4245,0 18.3772,-1.0554 10.7039,-2.8722 19.0646,-11.233 21.9368,-21.9368 1.0555,-3.9528 1.0555,-8.75404 1.0555,-18.37726 0,-9.62321 0,-14.42447 -1.0348,-18.37723 -2.8759,-10.70909 -11.2457,-19.07098 -21.9575,-21.93679 -3.9734,-1.05545 -8.7747,-1.05545 -18.3979,-1.05545 -9.6232,0 -14.4245,0 -18.3772,1.05545 -10.7039,2.87221 -19.0646,11.23295 -21.9368,21.93679 m 30.0079,38.90679 c 2.3178,0.1034 5.3807,0.1034 10.3682,0.1034 4.9875,0 8.0711,0 10.3682,-0.1034 2.2144,-0.1035 2.7318,-0.2691 2.649,-0.2484 3.5768,-0.9556 6.3705,-3.7493 7.3261,-7.32603 0,-0.0621 0.1655,-0.70364 0.2483,-2.64897 0.1035,-2.31785 0.1035,-5.38073 0.1035,-10.34755 0,-5.0289 0,-8.07108 -0.1035,-10.38893 -0.1035,-2.21437 -0.269,-2.73175 -0.2483,-2.64897 -0.9556,-3.57676 -3.7493,-6.37047 -7.3261,-7.32606 0.083,0.0207 -0.4346,-0.14486 -2.649,-0.22764 -2.3178,-0.12417 -5.3807,-0.12417 -10.3475,-0.12417 -4.9668,0 -8.0711,0 -10.3889,0.12417 -2.2144,0.0828 -2.7318,0.24834 -2.649,0.22764 -3.5768,0.95559 -6.3705,3.7493 -7.3261,7.32606 0.021,-0.0621 -0.1448,0.45529 -0.2483,2.64897 -0.1035,2.31785 -0.1035,5.38072 -0.1035,10.36824 0,5.00821 0,8.07108 0.1035,10.36824 0.1035,2.21437 0.269,2.73175 0.2483,2.64897 0.9556,3.57673 3.7493,6.37043 7.3261,7.32603 0.8767,0.1395 1.7616,0.2225 2.649,0.2484 m 219.3678,-38.90679 c -1.0554,3.95276 -1.0554,8.75402 -1.0554,18.37723 0,9.62322 0,14.42446 1.0554,18.37726 2.8767,10.72 11.2375,19.0808 21.9368,21.9368 3.9528,1.0554 8.7541,1.0554 18.3773,1.0554 9.6232,0 14.4451,0 18.3772,-1.0554 10.7038,-2.8722 19.0646,-11.233 21.9368,-21.9368 1.0554,-3.9528 1.0554,-8.75404 1.0554,-18.37726 0,-9.62321 0,-14.42447 -1.0554,-18.37723 -2.8722,-10.70384 -11.233,-19.06458 -21.9368,-21.93679 -3.9528,-1.05545 -8.754,-1.05545 -18.3772,-1.05545 -9.6232,0 -14.4452,0 -18.3773,1.05545 -10.7038,2.87221 -19.0645,11.23295 -21.9368,21.93679 m -126.24,18.41863 c 0,-9.62322 0,-14.42448 1.0555,-18.37724 2.8722,-10.70384 11.2329,-19.06458 21.9368,-21.93679 3.9527,-1.05545 8.754,-1.05545 18.3979,-1.05545 9.6439,0 14.4245,0 18.3772,1.05545 10.7201,2.87662 19.0809,11.23743 21.9368,21.93679 1.0555,3.95276 1.0555,8.75402 1.0555,18.37724 0,9.62321 0,14.42446 -1.0348,18.37726 -2.8722,10.7038 -11.2329,19.0645 -21.9368,21.9368 -3.9734,1.0554 -8.7747,1.0554 -18.3979,1.0554 -9.6232,0 -14.4245,0 -18.3772,-1.0554 -10.7039,-2.8723 -19.0646,-11.233 -21.9368,-21.9368 -1.0762,-3.9528 -1.0762,-8.75405 -1.0762,-18.37726 m 41.3902,20.69506 c -5.0082,0 -8.0504,0 -10.3682,-0.1035 -0.8874,-0.026 -1.7723,-0.1088 -2.649,-0.2483 -3.5768,-0.9556 -6.3705,-3.7493 -7.3261,-7.32606 0.021,0.0828 -0.1448,-0.43459 -0.2483,-2.64897 -0.1066,-3.45498 -0.1411,-6.91181 -0.1035,-10.36823 0,-5.00822 0,-8.05039 0.1035,-10.36824 0.1035,-2.06951 0.2483,-2.64897 0.2483,-2.64897 0.9583,-3.56354 3.7419,-6.34707 7.3054,-7.30537 -0.083,0.0207 0.4346,-0.14486 2.649,-0.24834 2.3178,-0.10347 5.3807,-0.10347 10.3682,-0.10347 4.9875,0 8.0711,0 10.3682,0.10347 2.2144,0.10348 2.7318,0.26904 2.649,0.24834 3.5768,0.95559 6.3705,3.7493 7.3261,7.32606 0,0 0.1448,0.57946 0.2483,2.64897 0.1035,2.31785 0.1035,5.38072 0.1035,10.36824 0,5.00821 0,8.05039 -0.1035,10.36824 -0.026,0.8874 -0.1088,1.77222 -0.2483,2.64897 -0.9556,3.57676 -3.7493,6.37046 -7.3261,7.32606 0,0 -0.5794,0.1449 -2.649,0.2483 -2.3178,0.083 -5.3807,0.083 -10.3475,0.083 m -164.5052,85.0568 c -1.0555,3.9528 -1.0555,8.754 -1.0555,18.3773 0,9.6232 0,14.4244 1.0555,18.3772 2.8722,10.7038 11.2329,19.0646 21.9368,21.9368 3.9527,1.0554 8.754,1.0554 18.3772,1.0554 9.6232,0 14.4245,0 18.3772,-1.0554 10.7039,-2.8722 19.0646,-11.233 21.9368,-21.9368 1.0555,-3.9528 1.0555,-8.754 1.0555,-18.3772 0,-9.6233 0,-14.4245 -1.0348,-18.3773 -2.8722,-10.7038 -11.2329,-19.0646 -21.9368,-21.9368 -3.9734,-1.0554 -8.7747,-1.0554 -18.3979,-1.0554 -9.6232,0 -14.4245,0 -18.3772,1.0554 -10.7039,2.8722 -19.0646,11.233 -21.9368,21.9368 m 247.2855,18.4186 c 0,-9.6232 0,-14.4244 1.0555,-18.3772 2.8722,-10.7038 11.2329,-19.0646 21.9368,-21.9368 3.9527,-1.0554 8.754,-1.0554 18.3772,-1.0554 9.6232,0 14.4452,0 18.3772,1.0554 10.7201,2.8766 19.0809,11.2374 21.9368,21.9368 1.0555,3.9528 1.0555,8.754 1.0555,18.3772 0,9.6232 0,14.4245 -1.0348,18.3773 -2.8722,10.7038 -11.2329,19.0645 -21.9368,21.9368 -3.9734,1.0554 -8.7747,1.0554 -18.3979,1.0554 -9.6232,0 -14.4452,0 -18.3772,-1.0554 -10.7039,-2.8723 -19.0646,-11.233 -21.9368,-21.9368 -1.0555,-3.9528 -1.0555,-8.7541 -1.0555,-18.3773 m 41.3902,20.6951 c -5.0082,0 -8.0504,0 -10.3682,-0.1035 -0.8874,-0.026 -1.7722,-0.1088 -2.649,-0.2483 -3.5768,-0.9556 -6.3705,-3.7493 -7.3261,-7.3261 0,0 -0.1448,-0.5794 -0.2483,-2.6489 -0.1035,-2.3179 -0.1035,-5.3808 -0.1035,-10.3683 0,-5.0082 0,-8.0504 0.1035,-10.3682 0.026,-0.8874 0.1088,-1.7722 0.2483,-2.649 0.962,-3.5688 3.7546,-6.3534 7.3261,-7.3053 -0.083,0.021 0.4346,-0.1449 2.649,-0.2484 2.3178,-0.1035 5.3807,-0.1035 10.3682,-0.1035 4.9875,0 8.0711,0 10.3682,0.1035 2.2144,0.1035 2.7318,0.2691 2.649,0.2484 3.5768,0.9556 6.3705,3.7493 7.3261,7.326 0,0 0.1448,0.5588 0.2483,2.649 0.1035,2.3178 0.1035,5.3807 0.1035,10.3682 0,5.0082 0,8.0504 -0.1035,10.3683 -0.026,0.8874 -0.1088,1.7722 -0.2483,2.6489 -0.9556,3.5768 -3.7493,6.3705 -7.3261,7.3261 0.083,-0.021 -0.4346,0.1449 -2.649,0.2483 -2.3178,0.1035 -5.3807,0.1035 -10.3475,0.1035 z m -164.5259,-39.1137 c -1.0555,3.9528 -1.0555,8.754 -1.0555,18.3772 0,9.6233 0,14.4245 1.0555,18.3773 2.8766,10.72 11.2374,19.0808 21.9368,21.9368 3.9527,1.0554 8.754,1.0554 18.3772,1.0554 9.6232,0 14.4245,0 18.3772,-1.0554 10.7039,-2.8722 19.0646,-11.233 21.9368,-21.9368 1.0555,-3.9528 1.0555,-8.754 1.0555,-18.3773 0,-9.6232 0,-14.4244 -1.0555,-18.3772 -2.8722,-10.7038 -11.2329,-19.0646 -21.9368,-21.9368 -3.9527,-1.0554 -8.754,-1.0554 -18.3772,-1.0554 -9.6232,0 -14.4245,0 -18.3772,1.0554 -10.7039,2.8722 -19.0646,11.233 -21.9368,21.9368 m -125.2053,142.5891 c 0,-9.6232 0,-14.4452 1.0555,-18.3772 2.8722,-10.7039 11.2329,-19.0646 21.9368,-21.9368 3.9527,-1.0555 8.754,-1.0555 18.3772,-1.0555 9.6232,0 14.4245,0 18.3772,1.0555 10.7201,2.8766 19.0809,11.2374 21.9368,21.9368 1.0555,3.9527 1.0555,8.754 1.0555,18.3772 0,9.6232 0,14.4452 -1.0348,18.3772 -2.8722,10.7039 -11.2329,19.0646 -21.9368,21.9368 -3.9734,1.0555 -8.7747,1.0555 -18.3979,1.0555 -9.6232,0 -14.4245,0 -18.3772,-1.0555 -10.7039,-2.8722 -19.0646,-11.2329 -21.9368,-21.9368 -1.0555,-3.9527 -1.0555,-8.754 -1.0555,-18.3772 m 41.3902,20.6951 c -5.0082,0 -8.0504,0 -10.3682,-0.1035 -0.8874,-0.026 -1.7723,-0.1088 -2.649,-0.2483 -3.5768,-0.9556 -6.3705,-3.7493 -7.3261,-7.3261 0.021,0.083 -0.1448,-0.4346 -0.2483,-2.649 -0.1035,-2.3178 -0.1035,-5.3807 -0.1035,-10.3682 0,-4.9875 0,-8.0504 0.1035,-10.3682 0.1035,-2.0695 0.2483,-2.649 0.2483,-2.649 0.9583,-3.5635 3.7419,-6.3471 7.3054,-7.3054 0,0 0.5795,-0.1448 2.649,-0.2483 2.3178,-0.1035 5.3807,-0.1035 10.3682,-0.1035 4.9875,0 8.0711,0 10.3682,0.1035 2.0696,0.1035 2.6904,0.2483 2.649,0.2483 3.5688,0.962 6.3535,3.7546 7.3054,7.3261 0,0 0.1448,0.5795 0.2483,2.649 0.1035,2.3178 0.1035,5.3807 0.1035,10.3682 0,4.9875 0,8.0711 -0.1035,10.3682 -0.026,0.8874 -0.1088,1.7723 -0.2483,2.649 -0.9556,3.5768 -3.7493,6.3705 -7.3261,7.3261 0,0 -0.5587,0.1448 -2.649,0.2483 -2.3178,0.083 -5.36,0.083 -10.3268,0.083 m 209.0203,-39.3207 c -1.0554,3.9528 -1.0554,8.7541 -1.0554,18.3773 0,9.6232 0,14.4451 1.0554,18.3772 2.8767,10.7201 11.2375,19.0809 21.9368,21.9368 3.9528,1.0554 8.7541,1.0554 18.3773,1.0554 9.6232,0 14.4451,0 18.3772,-1.0554 10.7038,-2.8722 19.0646,-11.233 21.9368,-21.9368 1.0554,-3.9528 1.0554,-8.754 1.0554,-18.3772 0,-9.6232 0,-14.4452 -1.0554,-18.3773 -2.8722,-10.7038 -11.233,-19.0645 -21.9368,-21.9368 -3.9528,-1.0554 -8.754,-1.0554 -18.3772,-1.0554 -9.6232,0 -14.4452,0 -18.3773,1.0554 -10.7038,2.8723 -19.0645,11.233 -21.9368,21.9368 m -126.24,18.6256 c 0,-9.6232 0,-14.4452 1.0555,-18.3772 2.8722,-10.7039 11.2329,-19.0646 21.9368,-21.9368 3.9527,-1.0555 8.754,-1.0555 18.3772,-1.0555 9.6232,0 14.4245,0 18.3772,1.0555 10.7201,2.8766 19.0809,11.2374 21.9368,21.9368 1.0555,3.9527 1.0555,8.754 1.0555,18.3772 0,9.6232 0,14.4452 -1.0348,18.3772 -2.8722,10.7039 -11.2329,19.0646 -21.9368,21.9368 -3.9734,1.0555 -8.7747,1.0555 -18.3979,1.0555 -9.6232,0 -14.4245,0 -18.3772,-1.0555 -10.7039,-2.8722 -19.0646,-11.2329 -21.9368,-21.9368 -1.0555,-3.9527 -1.0555,-8.754 -1.0555,-18.3772"
         clip-rule="evenodd"
         id="path2"
         style="fill:#a78bfa;fill-opacity:1;stroke:none;stroke-width:11.3386;stroke-dasharray:none;stroke-opacity:1;paint-order:fill markers stroke"
         sodipodi:nodetypes="csccsccsccscccsccccsccccsccccscccccsccsccsccscccccsccsccscccccccccccccsccccsccccccsccsccsccscccccsccsccsccccccccsccccsccccscccccccsccsccsccscccccsccsccsccccccccsccccsccccsccccccsccsccsccscccccsccsccsccc" /><path
         d="m 2740.1753,1192.7155 c -9.6232,0 -14.4449,-7e-4 -18.377,1.0547 -10.7038,2.8722 -19.0652,11.2337 -21.9375,21.9375 -1.0554,3.9528 -1.0547,8.7537 -1.0547,18.377 0,9.6232 -7e-4,14.4448 1.0547,18.3769 2.8767,10.7201 11.2382,19.0816 21.9375,21.9375 3.9528,1.0555 8.7538,1.0547 18.377,1.0547 9.6232,0 14.4448,8e-4 18.3769,-1.0547 10.7038,-2.8722 19.0653,-11.2336 21.9375,-21.9375 1.0554,-3.9527 1.0547,-8.7537 1.0547,-18.3769 0,-9.6232 7e-4,-14.4449 -1.0547,-18.377 -2.8722,-10.7038 -11.2337,-19.0653 -21.9375,-21.9375 -3.9528,-1.0554 -8.7537,-1.0547 -18.3769,-1.0547 z"
         style="clip-rule:evenodd;fill:#11ffaa;fill-opacity:1;fill-rule:evenodd;stroke:#11ffaa;stroke-width:2;stroke-dasharray:none;stroke-opacity:1;paint-order:fill markers stroke"
         id="path34" /><path
         d="m 2614.9897,1192.9636 c -9.6232,0 -14.4243,-8e-4 -18.3769,1.0547 -10.704,2.8722 -19.0634,11.2336 -21.9356,21.9375 -1.0555,3.932 -1.0566,8.7537 -1.0566,18.3769 0,9.6232 0,14.4242 1.0566,18.377 2.8722,10.7038 11.2317,19.0652 21.9356,21.9375 3.9527,1.0554 8.7537,1.0546 18.3769,1.0546 9.6232,0 14.425,8e-4 18.3984,-1.0546 10.7039,-2.8723 19.0653,-11.2337 21.9375,-21.9375 1.0348,-3.9321 1.0332,-8.7538 1.0332,-18.377 0,-9.6232 9e-4,-14.4242 -1.0546,-18.3769 -2.8559,-10.6994 -11.2174,-19.0609 -21.9375,-21.9375 -3.9527,-1.0555 -8.7538,-1.0547 -18.377,-1.0547 z"
         style="clip-rule:evenodd;fill:#11ffaa;fill-opacity:1;fill-rule:evenodd;stroke:#11ffaa;stroke-width:2;stroke-dasharray:none;stroke-opacity:1;paint-order:fill markers stroke"
         id="path33" /><path
         d="m 2490.8198,1068.7507 c -9.6232,0 -14.4243,10e-4 -18.377,1.0566 -10.7039,2.8722 -19.0653,11.2318 -21.9375,21.9356 -1.0555,3.9528 -1.0547,8.7557 -1.0547,18.3789 0,9.6232 -8e-4,14.4242 1.0547,18.377 2.8722,10.7038 11.2336,19.0633 21.9375,21.9355 3.9527,1.0554 8.7538,1.0566 18.377,1.0566 9.6232,0 14.4242,-10e-4 18.3769,-1.0566 10.7039,-2.8722 19.0653,-11.2317 21.9375,-21.9355 1.0555,-3.9528 1.0547,-8.7538 1.0547,-18.377 0,-9.6232 -3e-4,-14.4261 -1.0351,-18.3789 -2.8722,-10.7038 -11.2317,-19.0634 -21.9356,-21.9356 -3.9734,-1.0554 -8.7752,-1.0566 -18.3984,-1.0566 z"
         style="clip-rule:evenodd;fill:#11ffaa;fill-opacity:1;fill-rule:evenodd;stroke:#11ffaa;stroke-width:2;stroke-dasharray:none;stroke-opacity:1;paint-order:fill markers stroke"
         id="path32" /><path
         d="m 2614.9663,1068.7507 c -9.6232,0 -14.4243,10e-4 -18.377,1.0566 -10.7039,2.8723 -19.0653,11.2318 -21.9375,21.9356 -1.0555,3.9528 -1.0547,8.7557 -1.0547,18.3789 0,9.6232 -8e-4,14.4242 1.0547,18.377 2.8766,10.72 11.2381,19.0796 21.9375,21.9355 3.9527,1.0554 8.7538,1.0566 18.377,1.0566 9.6232,0 14.4242,-10e-4 18.3769,-1.0566 10.7039,-2.8722 19.0634,-11.2317 21.9356,-21.9355 1.0555,-3.9528 1.0566,-8.7538 1.0566,-18.377 0,-9.6232 0,-14.4261 -1.0566,-18.3789 -2.8722,-10.7038 -11.2317,-19.0634 -21.9356,-21.9356 -3.9527,-1.0554 -8.7537,-1.0566 -18.3769,-1.0566 z"
         style="clip-rule:evenodd;fill:#11ffaa;fill-opacity:1;fill-rule:evenodd;stroke:#11ffaa;stroke-width:2;stroke-dasharray:none;stroke-opacity:1;paint-order:fill markers stroke"
         id="path31" /><path
         d="m 2740.1753,944.58079 c -9.6232,0 -14.4449,-7.6e-4 -18.377,1.05469 -10.7038,2.87221 -19.0652,11.23366 -21.9375,21.9375 -1.0554,3.95276 -1.0547,8.75374 -1.0547,18.37695 0,9.62322 -7e-4,14.42417 1.0547,18.37697 2.8767,10.72 11.2382,19.0816 21.9375,21.9375 3.9528,1.0554 8.7538,1.0547 18.377,1.0547 9.6232,0 14.4448,7e-4 18.3769,-1.0547 10.7038,-2.8722 19.0653,-11.2337 21.9375,-21.9375 1.0554,-3.9528 1.0547,-8.75375 1.0547,-18.37697 0,-9.62321 7e-4,-14.42419 -1.0547,-18.37695 -2.8722,-10.70384 -11.2337,-19.06529 -21.9375,-21.9375 -3.9528,-1.05545 -8.7538,-1.05469 -18.3769,-1.05469 z"
         style="clip-rule:evenodd;fill:#11ffaa;fill-opacity:1;fill-rule:evenodd;stroke:#11ffaa;stroke-width:2;stroke-dasharray:none;stroke-opacity:1;paint-order:fill markers stroke"
         id="path30" /></g><g
       id="g34"
       style="display:none"><rect
         style="fill:#ffddaa;fill-opacity:1;fill-rule:evenodd;stroke:none;stroke-width:11.3387;stroke-linecap:round;stroke-dasharray:none;stroke-opacity:1;paint-order:fill markers stroke"
         id="rect2"
         width="90"
         height="45"
         x="2274.4912"
         y="507.82571"
         rx="11"
         ry="11" /><rect
         style="fill:#ffddaa;fill-opacity:1;fill-rule:evenodd;stroke:none;stroke-width:11.3387;stroke-linecap:round;stroke-dasharray:none;stroke-opacity:1;paint-order:fill markers stroke"
         id="rect2-3"
         width="90"
         height="45"
         x="2274.4912"
         y="758.71173"
         rx="11"
         ry="11" /><rect
         style="fill:#ffddaa;fill-opacity:1;fill-rule:evenodd;stroke:none;stroke-width:11.3387;stroke-linecap:round;stroke-dasharray:none;stroke-opacity:1;paint-order:fill markers stroke"
         id="rect2-8"
         width="90"
         height="45"
         x="2274.4912"
         y="640.91754"
         rx="11"
         ry="11" /><rect
         style="fill:#ffddaa;fill-opacity:1;fill-rule:evenodd;stroke:none;stroke-width:11.3387;stroke-linecap:round;stroke-dasharray:none;stroke-opacity:1;paint-order:fill markers stroke"
         id="rect2-2"
         width="50"
         height="80"
         x="2417.5715"
         y="381.73187"
         rx="11"
         ry="11" /><rect
         style="fill:#ffddaa;fill-opacity:1;fill-rule:evenodd;stroke:none;stroke-width:11.3387;stroke-linecap:round;stroke-dasharray:none;stroke-opacity:1;paint-order:fill markers stroke"
         id="rect2-2-2"
         width="50"
         height="80"
         x="2542.1257"
         y="381.73187"
         rx="11"
         ry="11" /><rect
         style="fill:#ffddaa;fill-opacity:1;fill-rule:evenodd;stroke:none;stroke-width:11.3387;stroke-linecap:round;stroke-dasharray:none;stroke-opacity:1;paint-order:fill markers stroke"
         id="rect2-2-2-3"
         width="50"
         height="80"
         x="2661.0686"
         y="381.73187"
         rx="11"
         ry="11" /></g></g><g
     inkscape:groupmode="layer"
     id="layer2"
     inkscape:label="assets"><path
       fill="currentColor"
       fill-rule="evenodd"
       d="m 3051.9999,389.5878 c -1.3733,5.14302 -1.3733,11.39003 -1.3733,23.91098 0,12.52095 0,18.76797 1.3733,23.91098 a 40.390167,40.390167 0 0 0 28.5423,28.54238 c 5.143,1.37327 11.3901,1.37327 23.911,1.37327 12.521,0 18.768,0 23.911,-1.37327 a 40.390167,40.390167 0 0 0 28.5424,-28.54238 c 1.3732,-5.14301 1.3732,-11.39003 1.3732,-23.91098 0,-12.52095 0,-18.76796 -1.3463,-23.91098 a 40.390167,40.390167 0 0 0 -28.5693,-28.54238 c -5.1699,-1.37327 -11.417,-1.37327 -23.9379,-1.37327 -12.521,0 -18.768,0 -23.911,1.37327 a 40.390167,40.390167 0 0 0 -28.5424,28.54238 m 39.0439,50.62234 c 3.0158,0.13464 7.0009,0.13464 13.4903,0.13464 6.4893,0 10.5014,0 13.4903,-0.13464 2.8811,-0.13463 3.5543,-0.35004 3.4466,-0.32312 a 13.463389,13.463389 0 0 0 9.5321,-9.53208 c 0,-0.0808 0.2154,-0.91551 0.3231,-3.44662 0.1346,-3.0158 0.1346,-7.00097 0.1346,-13.46339 0,-6.54321 0,-10.50145 -0.1346,-13.51724 -0.1346,-2.88117 -0.35,-3.55434 -0.3231,-3.44663 a 13.463389,13.463389 0 0 0 -9.5321,-9.53208 c 0.1346,0.0269 -0.5655,-0.18849 -3.4466,-0.2962 -3.0158,-0.16156 -7.001,-0.16156 -13.4634,-0.16156 -6.4624,0 -10.5014,0 -13.5172,0.16156 -2.8812,0.10771 -3.5544,0.32312 -3.4467,0.2962 a 13.463389,13.463389 0 0 0 -9.5321,9.53208 c 0,-0.0808 -0.1884,0.59239 -0.3231,3.44663 -0.1346,3.01579 -0.1346,7.00096 -0.1346,13.49031 0,6.51628 0,10.50144 0.1346,13.49032 0.1347,2.88116 0.3501,3.55433 0.3231,3.44662 a 13.463389,13.463389 0 0 0 9.5321,9.53208 26.926778,26.926778 0 0 0 3.4467,0.32312 m 285.4238,-50.62234 c -1.3733,5.14302 -1.3733,11.39003 -1.3733,23.91098 0,12.52095 0,18.76797 1.3733,23.91098 3.7428,13.94807 14.6212,24.82649 28.5424,28.54238 5.143,1.37327 11.39,1.37327 23.911,1.37327 12.5209,0 18.7949,0 23.9109,-1.37327 a 40.390167,40.390167 0 0 0 28.5424,-28.54238 c 1.3733,-5.14301 1.3733,-11.39003 1.3733,-23.91098 0,-12.52095 0,-18.76796 -1.3733,-23.91098 a 40.390167,40.390167 0 0 0 -28.5424,-28.54238 c -5.143,-1.37327 -11.39,-1.37327 -23.9109,-1.37327 -12.521,0 -18.7949,0 -23.911,1.37327 a 40.390167,40.390167 0 0 0 -28.5424,28.54238 m 39.0438,50.62234 c 3.0158,0.13464 7.001,0.13464 13.4903,0.13464 6.4894,0 10.4746,0 13.4904,-0.13464 a 26.926778,26.926778 0 0 0 3.4466,-0.32312 13.463389,13.463389 0 0 0 9.5051,-9.50515 c 0,-0.0808 0.1885,-0.91551 0.3232,-3.44663 0.1346,-3.0158 0.1346,-7.00096 0.1346,-13.46339 0,-6.5432 0,-10.50144 -0.1346,-13.51724 a 26.926778,26.926778 0 0 0 -0.3232,-3.44663 13.463389,13.463389 0 0 0 -9.532,-9.50515 c 0.1346,0.0269 -0.5924,-0.18849 -3.4467,-0.29619 -3.0158,-0.16156 -7.0009,-0.16156 -13.4903,-0.16156 -6.4893,0 -10.5014,0 -13.4903,0.16156 -2.6927,0.1077 -3.4466,0.29619 -3.4466,0.29619 a 13.463389,13.463389 0 0 0 -9.5052,9.50515 c 0,0 -0.1885,0.75395 -0.3231,3.44663 -0.1346,3.0158 -0.1346,7.00096 -0.1346,13.49032 0,6.51628 0,10.50144 0.1346,13.49031 0.1346,2.69268 0.3231,3.50048 0.3231,3.44663 a 13.463389,13.463389 0 0 0 9.5321,9.50515 26.926778,26.926778 0 0 0 3.4466,0.32312 m -203.2971,-26.65751 c 0,-12.52095 0,-18.76796 1.3732,-23.91097 a 40.390167,40.390167 0 0 1 28.5424,-28.54239 c 5.143,-1.37326 11.39,-1.37326 23.9379,-1.37326 12.5479,0 18.768,0 23.911,1.37326 13.9481,3.74282 24.8265,14.62124 28.5424,28.54239 1.3732,5.14301 1.3732,11.39002 1.3732,23.91097 0,12.52096 0,18.76797 -1.3463,23.91098 a 40.390167,40.390167 0 0 1 -28.5424,28.54239 c -5.1699,1.37326 -11.4169,1.37326 -23.9379,1.37326 -12.5209,0 -18.768,0 -23.911,-1.37326 a 40.390167,40.390167 0 0 1 -28.5424,-28.54239 c -1.4001,-5.14301 -1.4001,-11.39002 -1.4001,-23.91098 m 53.8535,26.92678 c -6.5163,0 -10.4745,0 -13.4903,-0.13463 a 26.926778,26.926778 0 0 1 -3.4466,-0.32312 13.463389,13.463389 0 0 1 -9.5321,-9.53208 c 0,0.10771 -0.1885,-0.56546 -0.3231,-3.44663 a 323.12134,323.12134 0 0 1 -0.1347,-13.49032 c 0,-6.51628 0,-10.47451 0.1347,-13.49031 0.1346,-2.69268 0.3231,-3.44663 0.3231,-3.44663 a 13.463389,13.463389 0 0 1 9.5051,-9.50515 c -0.1346,0.0269 0.5655,-0.18849 3.4467,-0.32312 3.0158,-0.13464 7.0009,-0.13464 13.4903,-0.13464 6.4893,0 10.5014,0 13.4903,0.13464 2.8812,0.13463 3.5543,0.35005 3.4466,0.32312 a 13.463389,13.463389 0 0 1 9.5321,9.53208 c 0,0 0.1885,0.75395 0.3231,3.44663 0.1347,3.01579 0.1347,7.00096 0.1347,13.49031 0,6.51628 0,10.47452 -0.1347,13.49032 a 26.926778,26.926778 0 0 1 -0.3231,3.44662 13.463389,13.463389 0 0 1 -9.5321,9.53208 c 0,0 -0.7539,0.18849 -3.4466,0.32313 -3.0158,0.1077 -7.001,0.1077 -13.4634,0.1077 m -214.0409,110.66906 c -1.3733,5.14301 -1.3733,11.39003 -1.3733,23.91098 0,12.52095 0,18.76796 1.3733,23.91098 a 40.390167,40.390167 0 0 0 28.5423,28.54238 c 5.143,1.37327 11.3901,1.37327 23.911,1.37327 12.521,0 18.768,0 23.911,-1.37327 a 40.390167,40.390167 0 0 0 28.5424,-28.54238 c 1.3732,-5.14302 1.3732,-11.39003 1.3732,-23.91098 0,-12.52095 0,-18.76797 -1.3463,-23.91098 a 40.390167,40.390167 0 0 0 -28.5424,-28.54238 c -5.1699,-1.37327 -11.4169,-1.37327 -23.9379,-1.37327 -12.5209,0 -18.768,0 -23.911,1.37327 a 40.390167,40.390167 0 0 0 -28.5423,28.54238 m 39.0438,50.62234 c 3.0158,0.13464 7.0009,0.13464 13.4903,0.13464 6.4893,0 10.5014,0 13.4903,-0.13464 2.6927,-0.13463 3.4466,-0.32312 3.4466,-0.32312 a 13.463389,13.463389 0 0 0 9.5052,-9.50515 c 0,-0.0808 0.1885,-0.91551 0.3231,-3.44663 0.1346,-3.0158 0.1346,-7.00096 0.1346,-13.46339 0,-6.5432 0,-10.50144 -0.1346,-13.51724 -0.1346,-2.69268 -0.3231,-3.44663 -0.3231,-3.44663 a 13.463389,13.463389 0 0 0 -9.5052,-9.50515 c 0.1347,0.0269 -0.5654,-0.18849 -3.4466,-0.29619 -3.0158,-0.16157 -7.001,-0.16157 -13.4903,-0.16157 -6.4894,0 -10.4745,0 -13.4903,0.16157 a 26.926778,26.926778 0 0 0 -3.4466,0.29619 13.463389,13.463389 0 0 0 -9.5052,9.50515 c 0,-0.0808 -0.1885,0.59239 -0.3231,3.44663 -0.1347,3.0158 -0.1347,7.00096 -0.1347,13.49032 0,6.51628 0,10.50144 0.1347,13.49031 0.1346,2.88117 0.35,3.55434 0.3231,3.44663 a 13.463389,13.463389 0 0 0 9.5321,9.53208 26.926778,26.926778 0 0 0 3.4466,0.32312 z m 282.7042,-26.65751 c 0,-12.52095 0,-18.76796 1.3733,-23.91098 a 40.390167,40.390167 0 0 1 28.5424,-28.54238 c 5.143,-1.37327 11.39,-1.37327 23.9109,-1.37327 12.521,0 18.7949,0 23.911,1.37327 13.9481,3.74282 24.8265,14.62124 28.5424,28.54238 1.3733,5.14302 1.3733,11.39003 1.3733,23.91098 0,12.52095 0,18.76797 -1.3464,23.91098 a 40.390167,40.390167 0 0 1 -28.5423,28.54239 c -5.17,1.37326 -11.417,1.37326 -23.938,1.37326 -12.5209,0 -18.7948,0 -23.9109,-1.37326 a 40.390167,40.390167 0 0 1 -28.5424,-28.54239 c -1.3733,-5.14301 -1.3733,-11.39003 -1.3733,-23.91098 m 53.8536,26.92678 c -6.5163,0 -10.4745,0 -13.4903,-0.13463 a 26.926778,26.926778 0 0 1 -3.4467,-0.32312 13.463389,13.463389 0 0 1 -9.532,-9.53208 c 0,0 -0.1885,-0.75395 -0.3232,-3.44663 -0.1346,-3.0158 -0.1346,-7.00096 -0.1346,-13.49032 0,-6.51628 0,-10.47451 0.1346,-13.49031 a 26.926778,26.926778 0 0 1 0.3232,-3.44663 13.463389,13.463389 0 0 1 9.532,-9.50515 c -0.1346,0.0269 0.5655,-0.18849 3.4467,-0.32312 3.0158,-0.13464 7.0009,-0.13464 13.4903,-0.13464 6.4893,0 10.5014,0 13.4903,0.13464 2.8812,0.13463 3.5543,0.35004 3.4466,0.32312 a 13.463389,13.463389 0 0 1 9.5321,9.53208 c 0,0 0.1885,0.72702 0.3231,3.44662 0.1347,3.0158 0.1347,7.00097 0.1347,13.49032 0,6.51628 0,10.47452 -0.1347,13.49032 a 26.926778,26.926778 0 0 1 -0.3231,3.44662 13.463389,13.463389 0 0 1 -9.5321,9.53208 c 0.1347,-0.0269 -0.5654,0.18849 -3.4466,0.32312 -3.0158,0.13464 -7.001,0.13464 -13.4634,0.13464 z m -214.0679,-50.89161 c -1.3733,5.14301 -1.3733,11.39003 -1.3733,23.91098 0,12.52095 0,18.76796 1.3733,23.91098 3.7428,13.94807 14.6212,24.82649 28.5424,28.54238 5.143,1.37327 11.39,1.37327 23.911,1.37327 12.5209,0 18.7679,0 23.9109,-1.37327 a 40.390167,40.390167 0 0 0 28.5424,-28.54238 c 1.3733,-5.14302 1.3733,-11.39003 1.3733,-23.91098 0,-12.52095 0,-18.76797 -1.3733,-23.91098 a 40.390167,40.390167 0 0 0 -28.5424,-28.54238 c -5.143,-1.37327 -11.39,-1.37327 -23.9109,-1.37327 -12.521,0 -18.768,0 -23.911,1.37327 a 40.390167,40.390167 0 0 0 -28.5424,28.54238 m 39.0438,50.62234 c 3.0158,0.13464 7.001,0.13464 13.4903,0.13464 6.4894,0 10.4746,0 13.4904,-0.13464 2.8811,-0.13463 3.5543,-0.35005 3.4466,-0.32312 a 13.463389,13.463389 0 0 0 9.5321,-9.53208 c 0,-0.0808 0.1884,-0.91551 0.3231,-3.44663 0.1346,-3.01579 0.1346,-7.00096 0.1346,-13.46338 0,-6.54321 0,-10.50145 -0.1346,-13.51725 -0.1347,-2.88116 -0.3501,-3.55433 -0.3231,-3.44662 a 13.463389,13.463389 0 0 0 -9.5321,-9.53208 c 0.1346,0.0269 -0.5655,-0.18849 -3.4466,-0.2962 -3.0158,-0.16156 -7.001,-0.16156 -13.4904,-0.16156 -6.4893,0 -10.4745,0 -13.4903,0.16156 -2.8811,0.10771 -3.5543,0.32312 -3.4466,0.2962 a 13.463389,13.463389 0 0 0 -9.5321,9.53208 c 0,-0.0808 -0.1885,0.59238 -0.3231,3.44662 -0.1346,3.0158 -0.1346,7.00097 -0.1346,13.49032 0,6.51628 0,10.50144 0.1346,13.49031 0.1346,2.88117 0.35,3.55434 0.3231,3.44663 a 13.463389,13.463389 0 0 0 9.5321,9.53208 26.926778,26.926778 0 0 0 3.4466,0.32312 m -201.9508,134.90316 c 0,-12.52095 0,-18.79489 1.3733,-23.91098 a 40.390167,40.390167 0 0 1 28.5423,-28.54238 c 5.143,-1.37327 11.3901,-1.37327 23.911,-1.37327 12.521,0 18.768,0 23.911,1.37327 13.9481,3.74282 24.8265,14.62124 28.5424,28.54238 1.3732,5.14302 1.3732,11.39003 1.3732,23.91098 0,12.52095 0,18.79489 -1.3463,23.91098 a 40.390167,40.390167 0 0 1 -28.5424,28.54238 c -5.1699,1.37327 -11.4169,1.37327 -23.9379,1.37327 -12.5209,0 -18.768,0 -23.911,-1.37327 a 40.390167,40.390167 0 0 1 -28.5423,-28.54238 c -1.3733,-5.14301 -1.3733,-11.39003 -1.3733,-23.91098 m 53.8535,26.92678 c -6.5162,0 -10.4745,0 -13.4903,-0.13464 a 26.926778,26.926778 0 0 1 -3.4466,-0.32312 13.463389,13.463389 0 0 1 -9.5321,-9.53208 c 0,0.10771 -0.1885,-0.56546 -0.3231,-3.44662 -0.1346,-3.0158 -0.1346,-7.00097 -0.1346,-13.49032 0,-6.48935 0,-10.47452 0.1346,-13.49032 0.1346,-2.69267 0.3231,-3.44662 0.3231,-3.44662 a 13.463389,13.463389 0 0 1 9.5052,-9.50516 c 0,0 0.7539,-0.18848 3.4466,-0.32312 3.0158,-0.13463 7.001,-0.13463 13.4903,-0.13463 6.4894,0 10.5015,0 13.4903,0.13463 2.6927,0.13464 3.5005,0.32312 3.4467,0.32312 a 13.463389,13.463389 0 0 1 9.5051,9.53208 c 0,0 0.1885,0.75395 0.3231,3.44663 0.1347,3.0158 0.1347,7.00096 0.1347,13.49032 0,6.48935 0,10.50144 -0.1347,13.49031 a 26.926778,26.926778 0 0 1 -0.3231,3.44663 13.463389,13.463389 0 0 1 -9.5321,9.53208 c 0,0 -0.727,0.18849 -3.4466,0.32312 -3.0158,0.10771 -6.974,0.10771 -13.4365,0.10771 m 271.9605,-51.16088 c -1.3733,5.14302 -1.3733,11.39003 -1.3733,23.91098 0,12.52095 0,18.79489 1.3733,23.91098 3.7428,13.94807 14.6212,24.82649 28.5424,28.54238 5.143,1.37327 11.39,1.37327 23.911,1.37327 12.5209,0 18.7949,0 23.9109,-1.37327 a 40.390167,40.390167 0 0 0 28.5424,-28.54238 c 1.3733,-5.14302 1.3733,-11.39003 1.3733,-23.91098 0,-12.52095 0,-18.79489 -1.3733,-23.91098 a 40.390167,40.390167 0 0 0 -28.5424,-28.54238 c -5.143,-1.37327 -11.39,-1.37327 -23.9109,-1.37327 -12.521,0 -18.7949,0 -23.911,1.37327 a 40.390167,40.390167 0 0 0 -28.5424,28.54238 m 39.0438,50.62234 c 3.0158,0.13464 7.001,0.13464 13.4903,0.13464 6.4894,0 10.4746,0 13.4904,-0.13464 2.6926,-0.1077 3.4466,-0.32312 3.4466,-0.32312 a 13.463389,13.463389 0 0 0 9.5051,-9.53208 c 0,-0.0808 0.1885,-0.91551 0.3232,-3.44663 0.1346,-3.01579 0.1346,-7.00096 0.1346,-13.46338 0,-6.46243 0,-10.50145 -0.1346,-13.51725 -0.1347,-2.88116 -0.3501,-3.55433 -0.3232,-3.44662 a 13.463389,13.463389 0 0 0 -9.532,-9.53208 c 0.1346,0.0269 -0.5655,-0.16156 -3.4467,-0.2962 -3.0158,-0.13463 -7.0009,-0.16156 -13.4903,-0.16156 -6.4893,0 -10.4745,0 -13.4903,0.16156 -2.8812,0.13464 -3.5543,0.32312 -3.4466,0.2962 a 13.463389,13.463389 0 0 0 -9.5321,9.53208 c 0,-0.0808 -0.1885,0.59238 -0.3231,3.44662 -0.1347,3.0158 -0.1347,7.00097 -0.1347,13.49032 0,6.48935 0,10.50144 0.1347,13.49031 0.1346,2.88117 0.35,3.55434 0.3231,3.44663 a 13.463389,13.463389 0 0 0 9.5321,9.53208 26.926778,26.926778 0 0 0 3.4466,0.32312 z m -203.2971,-26.38824 c 0,-12.52095 0,-18.79489 1.3732,-23.91098 a 40.390167,40.390167 0 0 1 28.5424,-28.54238 c 5.143,-1.37327 11.39,-1.37327 23.911,-1.37327 12.5209,0 18.7679,0 23.911,1.37327 13.948,3.74282 24.8265,14.62124 28.5423,28.54238 1.3733,5.14302 1.3733,11.39003 1.3733,23.91098 0,12.52095 0,18.79489 -1.3463,23.91098 a 40.390167,40.390167 0 0 1 -28.5424,28.54238 c -5.17,1.37327 -11.417,1.37327 -23.9379,1.37327 -12.521,0 -18.768,0 -23.911,-1.37327 a 40.390167,40.390167 0 0 1 -28.5424,-28.54238 c -1.3732,-5.14301 -1.3732,-11.39003 -1.3732,-23.91098 m 53.8535,26.92678 c -6.5163,0 -10.4745,0 -13.4903,-0.13464 a 26.926778,26.926778 0 0 1 -3.4466,-0.32312 13.463389,13.463389 0 0 1 -9.5321,-9.53208 c 0,0.10771 -0.1885,-0.56546 -0.3231,-3.44662 -0.1347,-3.0158 -0.1347,-7.00097 -0.1347,-13.49032 0,-6.48935 0,-10.47452 0.1347,-13.49032 0.1346,-2.88116 0.35,-3.55433 0.3231,-3.44662 a 13.463389,13.463389 0 0 1 9.5321,-9.53208 c -0.1347,0.0269 0.5654,-0.18849 3.4466,-0.32312 3.0158,-0.13464 7.001,-0.13464 13.4903,-0.13464 6.4894,0 10.4745,0 13.4903,0.13464 a 26.926778,26.926778 0 0 1 3.4467,0.32312 13.463389,13.463389 0 0 1 9.5051,9.53208 c 0,-0.10771 0.1885,0.56546 0.3231,3.44662 0.1347,3.0158 0.1347,7.00097 0.1347,13.49032 0,6.48935 0,10.50144 -0.1347,13.49032 a 26.926778,26.926778 0 0 1 -0.3231,3.44662 13.463389,13.463389 0 0 1 -9.5321,9.53208 16.156067,16.156067 0 0 1 -3.4466,0.32312 c -3.0158,0.13464 -7.001,0.13464 -13.4903,0.13464 z"
       clip-rule="evenodd"
       id="path1-5"
       style="fill:#66eeff;stroke-width:2" /><rect
       style="fill:#f5f5f5;fill-rule:evenodd;stroke-width:45.3543;stroke-linecap:round"
       id="rect1"
       width="152.64474"
       height="152.64474"
       x="182.38072"
       y="160.57434" /><path
       fill="currentColor"
       fill-rule="evenodd"
       d="m 89.995137,50.047307 a 39.995135,39.995135 0 1 1 0,79.990273 39.995135,39.995135 0 0 1 0,-79.990273 m 159.980393,0 a 39.995135,39.995135 0 1 1 0,79.990273 39.995135,39.995135 0 0 1 0,-79.990273 m 199.97537,39.99514 a 39.995086,39.995086 0 1 0 -79.99012,0 39.995086,39.995086 0 0 0 79.99012,0 M 89.995137,210.0277 a 39.99509,39.99509 0 1 1 0,79.99012 39.99509,39.99509 0 0 1 0,-79.99012 m 199.975523,39.99514 a 39.995135,39.995135 0 1 0 -79.99027,0 39.995135,39.995135 0 0 0 79.99027,0 M 409.95592,210.0277 a 39.99509,39.99509 0 1 1 0,79.99012 39.99509,39.99509 0 0 1 0,-79.99012 M 129.99027,410.00308 a 39.995086,39.995086 0 1 0 -79.990118,0 39.995086,39.995086 0 0 0 79.990118,0 M 249.97553,370.0081 a 39.995086,39.995086 0 1 1 0,79.99012 39.995086,39.995086 0 0 1 0,-79.99012 m 199.97537,39.99498 a 39.995086,39.995086 0 1 0 -79.99012,0 39.995086,39.995086 0 0 0 79.99012,0"
       clip-rule="evenodd"
       id="path1"
       style="fill:#eeaa33;stroke-width:1.33333" /><path
       fill="currentColor"
       fill-rule="evenodd"
       d="m 663.34457,62.29646 c -1.05545,3.95276 -1.05545,8.75402 -1.05545,18.37723 0,9.62322 0,14.42448 1.05545,18.37724 a 31.042626,31.042626 0 0 0 21.93679,21.93679 c 3.95276,1.05545 8.75402,1.05545 18.37723,1.05545 9.62321,0 14.42447,0 18.37724,-1.05545 a 31.042626,31.042626 0 0 0 21.93678,-21.93679 c 1.05545,-3.95276 1.05545,-8.75402 1.05545,-18.37724 0,-9.62321 0,-14.42447 -1.03475,-18.37723 A 31.042626,31.042626 0 0 0 722.03583,40.35967 c -3.97346,-1.05545 -8.77472,-1.05545 -18.39793,-1.05545 -9.62322,0 -14.42448,0 -18.37724,1.05545 a 31.042626,31.042626 0 0 0 -21.93679,21.93679 m 30.00787,38.90676 c 2.31785,0.10347 5.38073,0.10347 10.36824,0.10347 4.98752,0 8.07108,0 10.36824,-0.10347 2.21437,-0.10348 2.73175,-0.26904 2.64897,-0.24834 a 10.347542,10.347542 0 0 0 7.32606,-7.32606 c 0,-0.0621 0.16556,-0.70364 0.24834,-2.64897 0.10347,-2.31785 0.10347,-5.38073 0.10347,-10.34755 0,-5.0289 0,-8.07108 -0.10347,-10.38893 -0.10348,-2.21437 -0.26904,-2.73175 -0.24834,-2.64897 a 10.347542,10.347542 0 0 0 -7.32606,-7.32606 c 0.0828,0.0207 -0.4346,-0.14486 -2.64897,-0.22764 -2.31785,-0.12417 -5.38072,-0.12417 -10.34754,-0.12417 -4.96682,0 -8.07109,0 -10.38894,0.12417 -2.21437,0.0828 -2.73175,0.24834 -2.64897,0.22764 a 10.347542,10.347542 0 0 0 -7.32606,7.32606 c 0.0207,-0.0621 -0.14486,0.45529 -0.24834,2.64897 -0.10347,2.31785 -0.10347,5.38072 -0.10347,10.36824 0,5.00821 0,8.07108 0.10347,10.36824 0.10348,2.21437 0.26904,2.73175 0.24834,2.64897 a 10.347542,10.347542 0 0 0 7.32606,7.32606 20.695084,20.695084 0 0 0 2.64897,0.24834 M 912.69963,62.29646 c -1.05545,3.95276 -1.05545,8.75402 -1.05545,18.37723 0,9.62322 0,14.42448 1.05545,18.37724 2.87662,10.72005 11.23743,19.08087 21.93679,21.93679 3.95276,1.05545 8.75402,1.05545 18.37724,1.05545 9.62321,0 14.44517,0 18.37723,-1.05545 a 31.042626,31.042626 0 0 0 21.93679,-21.93679 c 1.05545,-3.95276 1.05545,-8.75402 1.05545,-18.37724 0,-9.62321 0,-14.42447 -1.05545,-18.37723 A 31.042626,31.042626 0 0 0 971.39089,40.35967 c -3.95276,-1.05545 -8.75402,-1.05545 -18.37723,-1.05545 -9.62322,0 -14.44517,0 -18.37724,1.05545 a 31.042626,31.042626 0 0 0 -21.93679,21.93679 m 30.00788,38.90676 c 2.31785,0.10347 5.38072,0.10347 10.36823,0.10347 4.98752,0 8.05039,0 10.36824,-0.10347 a 20.695084,20.695084 0 0 0 2.64897,-0.24834 10.347542,10.347542 0 0 0 7.30537,-7.30537 c 0,-0.0621 0.14486,-0.70363 0.24834,-2.64897 0.10347,-2.31785 0.10347,-5.38072 0.10347,-10.34754 0,-5.02891 0,-8.07108 -0.10347,-10.38893 a 20.695084,20.695084 0 0 0 -0.24834,-2.64897 10.347542,10.347542 0 0 0 -7.32606,-7.30537 c 0.0828,0.0207 -0.4553,-0.14486 -2.64898,-0.22764 -2.31784,-0.12417 -5.38072,-0.12417 -10.36823,-0.12417 -4.98752,0 -8.07109,0 -10.36824,0.12417 -2.06951,0.0828 -2.64897,0.22764 -2.64897,0.22764 a 10.347542,10.347542 0 0 0 -7.30536,7.30537 c 0,0 -0.14487,0.57946 -0.24835,2.64897 -0.10347,2.31785 -0.10347,5.38072 -0.10347,10.36823 0,5.00822 0,8.07109 0.10347,10.36824 0.10348,2.06951 0.24835,2.69036 0.24835,2.64897 a 10.347542,10.347542 0 0 0 7.32605,7.30537 20.695084,20.695084 0 0 0 2.64898,0.24834 M 786.45962,80.71509 c 0,-9.62322 0,-14.42448 1.05545,-18.37724 a 31.042626,31.042626 0 0 1 21.93679,-21.93679 c 3.95276,-1.05545 8.75402,-1.05545 18.39793,-1.05545 9.64391,0 14.42447,0 18.37723,1.05545 10.72006,2.87662 19.08087,11.23743 21.93679,21.93679 1.05545,3.95276 1.05545,8.75402 1.05545,18.37724 0,9.62321 0,14.42447 -1.03475,18.37723 a 31.042626,31.042626 0 0 1 -21.93679,21.93679 c -3.97346,1.05545 -8.77472,1.05545 -18.39793,1.05545 -9.62321,0 -14.42447,0 -18.37724,-1.05545 A 31.042626,31.042626 0 0 1 787.53577,99.09232 c -1.07615,-3.95276 -1.07615,-8.75402 -1.07615,-18.37723 m 41.39017,20.69508 c -5.00821,0 -8.05039,0 -10.36824,-0.10348 a 20.695084,20.695084 0 0 1 -2.64897,-0.24834 10.347542,10.347542 0 0 1 -7.32606,-7.32606 c 0.0207,0.0828 -0.14486,-0.43459 -0.24834,-2.64897 a 248.34101,248.34101 0 0 1 -0.10347,-10.36823 c 0,-5.00822 0,-8.05039 0.10347,-10.36824 0.10348,-2.06951 0.24834,-2.64897 0.24834,-2.64897 a 10.347542,10.347542 0 0 1 7.30537,-7.30537 c -0.0828,0.0207 0.43459,-0.14486 2.64897,-0.24834 2.31785,-0.10347 5.38072,-0.10347 10.36823,-0.10347 4.98752,0 8.07109,0 10.36824,0.10347 2.21438,0.10348 2.73175,0.26904 2.64897,0.24834 a 10.347542,10.347542 0 0 1 7.32606,7.32606 c 0,0 0.14487,0.57946 0.24834,2.64897 0.10348,2.31785 0.10348,5.38072 0.10348,10.36824 0,5.00821 0,8.05039 -0.10348,10.36824 a 20.695084,20.695084 0 0 1 -0.24834,2.64897 10.347542,10.347542 0 0 1 -7.32606,7.32606 c 0,0 -0.57946,0.14486 -2.64897,0.24834 -2.31785,0.0828 -5.38072,0.0828 -10.34754,0.0828 m -164.50522,85.05679 c -1.05545,3.95277 -1.05545,8.75402 -1.05545,18.37724 0,9.62321 0,14.42447 1.05545,18.37723 a 31.042626,31.042626 0 0 0 21.93679,21.93679 c 3.95276,1.05545 8.75402,1.05545 18.37723,1.05545 9.62321,0 14.42447,0 18.37724,-1.05545 a 31.042626,31.042626 0 0 0 21.93678,-21.93679 c 1.05545,-3.95276 1.05545,-8.75402 1.05545,-18.37723 0,-9.62322 0,-14.42447 -1.03475,-18.37724 A 31.042626,31.042626 0 0 0 722.05652,164.5302 c -3.97346,-1.05545 -8.77472,-1.05545 -18.39793,-1.05545 -9.62321,0 -14.42447,0 -18.37723,1.05545 a 31.042626,31.042626 0 0 0 -21.93679,21.93678 m 30.00787,38.90676 c 2.31785,0.10348 5.38072,0.10348 10.36824,0.10348 4.98751,0 8.07108,0 10.36823,-0.10348 2.06951,-0.10347 2.64897,-0.24834 2.64897,-0.24834 a 10.347542,10.347542 0 0 0 7.30537,-7.30536 c 0,-0.0621 0.14486,-0.70364 0.24834,-2.64897 0.10347,-2.31785 0.10347,-5.38073 0.10347,-10.34755 0,-5.0289 0,-8.07108 -0.10347,-10.38893 -0.10348,-2.06951 -0.24834,-2.64897 -0.24834,-2.64897 a 10.347542,10.347542 0 0 0 -7.30537,-7.30536 c 0.0828,0.0207 -0.43459,-0.14487 -2.64897,-0.22765 -2.31785,-0.12417 -5.38072,-0.12417 -10.36823,-0.12417 -4.98752,0 -8.05039,0 -10.36824,0.12417 a 20.695084,20.695084 0 0 0 -2.64897,0.22765 10.347542,10.347542 0 0 0 -7.30537,7.30536 c 0.0207,-0.0621 -0.14486,0.45529 -0.24834,2.64897 -0.10347,2.31785 -0.10347,5.38072 -0.10347,10.36824 0,5.00821 0,8.07108 0.10347,10.36824 0.10348,2.21437 0.26904,2.73175 0.24834,2.64897 a 10.347542,10.347542 0 0 0 7.32606,7.32606 20.695084,20.695084 0 0 0 2.64897,0.24834 z m 217.27769,-20.48815 c 0,-9.62321 0,-14.42447 1.05544,-18.37724 a 31.042626,31.042626 0 0 1 21.93679,-21.93678 c 3.95276,-1.05545 8.75402,-1.05545 18.37724,-1.05545 9.62321,0 14.44517,0 18.37723,1.05545 10.72006,2.87661 19.08087,11.23743 21.93679,21.93678 1.05545,3.95277 1.05545,8.75403 1.05545,18.37724 0,9.62321 0,14.42447 -1.03475,18.37723 a 31.042626,31.042626 0 0 1 -21.93679,21.93679 c -3.97346,1.05545 -8.77472,1.05545 -18.39793,1.05545 -9.62322,0 -14.44517,0 -18.37724,-1.05545 a 31.042626,31.042626 0 0 1 -21.93679,-21.93679 c -1.05544,-3.95276 -1.05544,-8.75402 -1.05544,-18.37723 m 41.39016,20.69508 c -5.00821,0 -8.05038,0 -10.36823,-0.10347 a 20.695084,20.695084 0 0 1 -2.64897,-0.24834 10.347542,10.347542 0 0 1 -7.32606,-7.32606 c 0,0 -0.14487,-0.57947 -0.24835,-2.64897 -0.10347,-2.31785 -0.10347,-5.38073 -0.10347,-10.36824 0,-5.00821 0,-8.05039 0.10347,-10.36824 a 20.695084,20.695084 0 0 1 0.24835,-2.64897 10.347542,10.347542 0 0 1 7.32606,-7.30536 c -0.0828,0.0207 0.43459,-0.14487 2.64897,-0.24834 2.31785,-0.10348 5.38072,-0.10348 10.36823,-0.10348 4.98752,0 8.07109,0 10.36824,0.10348 2.21437,0.10347 2.73175,0.26903 2.64897,0.24834 a 10.347542,10.347542 0 0 1 7.32606,7.32606 c 0,0 0.14487,0.55876 0.24834,2.64897 0.10348,2.31785 0.10348,5.38072 0.10348,10.36823 0,5.00821 0,8.05039 -0.10348,10.36824 a 20.695084,20.695084 0 0 1 -0.24834,2.64897 10.347542,10.347542 0 0 1 -7.32606,7.32606 c 0.0828,-0.0207 -0.4346,0.14487 -2.64897,0.24834 -2.31785,0.10348 -5.38072,0.10348 -10.34754,0.10348 z M 787.49438,186.46696 c -1.05545,3.95277 -1.05545,8.75402 -1.05545,18.37724 0,9.62321 0,14.42447 1.05545,18.37723 2.87661,10.72006 11.23743,19.08087 21.93678,21.93679 3.95277,1.05545 8.75403,1.05545 18.37724,1.05545 9.62321,0 14.42447,0 18.37723,-1.05545 a 31.042626,31.042626 0 0 0 21.93679,-21.93679 c 1.05545,-3.95276 1.05545,-8.75402 1.05545,-18.37723 0,-9.62322 0,-14.42447 -1.05545,-18.37724 a 31.042626,31.042626 0 0 0 -21.93679,-21.93678 c -3.95276,-1.05545 -8.75402,-1.05545 -18.37723,-1.05545 -9.62321,0 -14.42447,0 -18.37724,1.05545 a 31.042626,31.042626 0 0 0 -21.93678,21.93678 m 30.00787,38.90676 c 2.31785,0.10348 5.38072,0.10348 10.36823,0.10348 4.98752,0 8.05039,0 10.36824,-0.10348 2.21438,-0.10347 2.73175,-0.26903 2.64897,-0.24834 a 10.347542,10.347542 0 0 0 7.32606,-7.32606 c 0,-0.0621 0.14487,-0.70363 0.24834,-2.64897 0.10348,-2.31785 0.10348,-5.38072 0.10348,-10.34754 0,-5.02891 0,-8.07108 -0.10348,-10.38893 -0.10347,-2.21438 -0.26903,-2.73175 -0.24834,-2.64897 a 10.347542,10.347542 0 0 0 -7.32606,-7.32606 c 0.0828,0.0207 -0.43459,-0.14487 -2.64897,-0.22765 -2.31785,-0.12417 -5.38072,-0.12417 -10.36824,-0.12417 -4.98751,0 -8.05038,0 -10.36823,0.12417 -2.21438,0.0828 -2.73175,0.24834 -2.64897,0.22765 a 10.347542,10.347542 0 0 0 -7.32606,7.32606 c 0.0207,-0.0621 -0.14487,0.45529 -0.24834,2.64897 -0.10348,2.31785 -0.10348,5.38072 -0.10348,10.36823 0,5.00821 0,8.07109 0.10348,10.36824 0.10347,2.21437 0.26903,2.73175 0.24834,2.64897 a 10.347542,10.347542 0 0 0 7.32606,7.32606 20.695084,20.695084 0 0 0 2.64897,0.24834 M 662.28912,329.05609 c 0,-9.62321 0,-14.44517 1.05545,-18.37723 a 31.042626,31.042626 0 0 1 21.93679,-21.93679 c 3.95276,-1.05545 8.75402,-1.05545 18.37723,-1.05545 9.62321,0 14.42447,0 18.37724,1.05545 10.72005,2.87662 19.08086,11.23743 21.93678,21.93679 1.05545,3.95276 1.05545,8.75402 1.05545,18.37723 0,9.62322 0,14.44517 -1.03475,18.37724 a 31.042626,31.042626 0 0 1 -21.93679,21.93679 c -3.97346,1.05545 -8.77472,1.05545 -18.39793,1.05545 -9.62321,0 -14.42447,0 -18.37723,-1.05545 a 31.042626,31.042626 0 0 1 -21.93679,-21.93679 c -1.05545,-3.95276 -1.05545,-8.75402 -1.05545,-18.37724 m 41.39017,20.69509 c -5.00821,0 -8.05039,0 -10.36824,-0.10348 a 20.695084,20.695084 0 0 1 -2.64897,-0.24834 10.347542,10.347542 0 0 1 -7.32606,-7.32606 c 0.0207,0.0828 -0.14487,-0.4346 -0.24834,-2.64897 -0.10348,-2.31785 -0.10348,-5.38072 -0.10348,-10.36824 0,-4.98751 0,-8.05038 0.10348,-10.36823 0.10347,-2.06951 0.24834,-2.64897 0.24834,-2.64897 a 10.347542,10.347542 0 0 1 7.30536,-7.30537 c 0,0 0.57946,-0.14486 2.64897,-0.24834 2.31785,-0.10348 5.38073,-0.10348 10.36824,-0.10348 4.98752,0 8.07108,0 10.36824,0.10348 2.06951,0.10348 2.69036,0.24834 2.64897,0.24834 a 10.347542,10.347542 0 0 1 7.30536,7.32606 c 0,0 0.14487,0.57946 0.24834,2.64897 0.10348,2.31785 0.10348,5.38072 0.10348,10.36824 0,4.98751 0,8.07108 -0.10348,10.36824 a 20.695084,20.695084 0 0 1 -0.24834,2.64897 10.347542,10.347542 0 0 1 -7.32606,7.32606 c 0,0 -0.55876,0.14486 -2.64897,0.24834 -2.31785,0.0828 -5.36002,0.0828 -10.32684,0.0828 m 209.02034,-39.32068 c -1.05545,3.95276 -1.05545,8.75402 -1.05545,18.37723 0,9.62322 0,14.44517 1.05545,18.37724 2.87662,10.72005 11.23743,19.08086 21.93679,21.93679 3.95276,1.05544 8.75402,1.05544 18.37724,1.05544 9.62321,0 14.44517,0 18.37723,-1.05544 a 31.042626,31.042626 0 0 0 21.93679,-21.93679 c 1.05545,-3.95276 1.05545,-8.75402 1.05545,-18.37724 0,-9.62321 0,-14.44517 -1.05545,-18.37723 a 31.042626,31.042626 0 0 0 -21.93679,-21.93679 c -3.95276,-1.05545 -8.75402,-1.05545 -18.37723,-1.05545 -9.62322,0 -14.44517,0 -18.37724,1.05545 a 31.042626,31.042626 0 0 0 -21.93679,21.93679 m 30.00788,38.90676 c 2.31785,0.10347 5.38072,0.10347 10.36823,0.10347 4.98752,0 8.05039,0 10.36824,-0.10347 2.06951,-0.0828 2.64897,-0.24835 2.64897,-0.24835 a 10.347542,10.347542 0 0 0 7.30537,-7.32606 c 0,-0.0621 0.14486,-0.70363 0.24834,-2.64897 0.10347,-2.31785 0.10347,-5.38072 0.10347,-10.34754 0,-4.96682 0,-8.07108 -0.10347,-10.38893 -0.10348,-2.21437 -0.26904,-2.73175 -0.24834,-2.64897 a 10.347542,10.347542 0 0 0 -7.32606,-7.32606 c 0.0828,0.0207 -0.4346,-0.12417 -2.64898,-0.22765 -2.31784,-0.10347 -5.38072,-0.12417 -10.36823,-0.12417 -4.98752,0 -8.05039,0 -10.36824,0.12417 -2.21437,0.10348 -2.73175,0.24834 -2.64897,0.22765 a 10.347542,10.347542 0 0 0 -7.32606,7.32606 c 0.0207,-0.0621 -0.14487,0.45529 -0.24834,2.64897 -0.10348,2.31785 -0.10348,5.38072 -0.10348,10.36824 0,4.98751 0,8.07108 0.10348,10.36823 0.10347,2.21438 0.26904,2.73175 0.24834,2.64897 a 10.347542,10.347542 0 0 0 7.32606,7.32606 20.695084,20.695084 0 0 0 2.64897,0.24835 z M 786.45962,329.05609 c 0,-9.62321 0,-14.44517 1.05545,-18.37723 a 31.042626,31.042626 0 0 1 21.93679,-21.93679 c 3.95276,-1.05545 8.75402,-1.05545 18.37723,-1.05545 9.62322,0 14.42448,0 18.37724,1.05545 10.72005,2.87662 19.08087,11.23743 21.93679,21.93679 1.05545,3.95276 1.05545,8.75402 1.05545,18.37723 0,9.62322 0,14.44517 -1.03476,18.37724 a 31.042626,31.042626 0 0 1 -21.93679,21.93679 c -3.97345,1.05545 -8.77471,1.05545 -18.39793,1.05545 -9.62321,0 -14.42447,0 -18.37723,-1.05545 a 31.042626,31.042626 0 0 1 -21.93679,-21.93679 c -1.05545,-3.95276 -1.05545,-8.75402 -1.05545,-18.37724 m 41.39017,20.69509 c -5.00821,0 -8.05039,0 -10.36824,-0.10348 a 20.695084,20.695084 0 0 1 -2.64897,-0.24834 10.347542,10.347542 0 0 1 -7.32606,-7.32606 c 0.0207,0.0828 -0.14486,-0.4346 -0.24834,-2.64897 -0.10347,-2.31785 -0.10347,-5.38072 -0.10347,-10.36824 0,-4.98751 0,-8.05038 0.10347,-10.36823 0.10348,-2.21438 0.26904,-2.73176 0.24834,-2.64897 a 10.347542,10.347542 0 0 1 7.32606,-7.32606 c -0.0828,0.0207 0.4346,-0.14487 2.64897,-0.24835 2.31785,-0.10347 5.38072,-0.10347 10.36824,-0.10347 4.98751,0 8.05039,0 10.36824,0.10347 a 20.695084,20.695084 0 0 1 2.64897,0.24835 10.347542,10.347542 0 0 1 7.30536,7.32606 c -0.0207,-0.0828 0.14487,0.43459 0.24834,2.64897 0.10348,2.31785 0.10348,5.38072 0.10348,10.36823 0,4.98752 0,8.07109 -0.10348,10.36824 a 20.695084,20.695084 0 0 1 -0.24834,2.64897 10.347542,10.347542 0 0 1 -7.32606,7.32606 12.41705,12.41705 0 0 1 -2.64897,0.24834 c -2.31785,0.10348 -5.38072,0.10348 -10.36824,0.10348 z"
       clip-rule="evenodd"
       id="path1-6"
       style="fill:#6688ff;stroke:none;stroke-width:11.3386;stroke-dasharray:none;stroke-opacity:1;paint-order:fill markers stroke" /></g><g
     inkscape:label="sec"
     inkscape:groupmode="layer"
     id="g15"
     style="fill:#cccc55"
     transform="translate(-24.41183,-10.138555)"><path
       sodipodi:type="star"
       style="fill:#220533;fill-opacity:1;fill-rule:evenodd;stroke:none;stroke-width:3.01607;stroke-linecap:round;stroke-dasharray:none;stroke-opacity:1"
       id="path3"
       inkscape:flatsided="true"
       sodipodi:sides="4"
       sodipodi:cx="2075.8552"
       sodipodi:cy="1301.3035"
       sodipodi:r1="421.56137"
       sodipodi:r2="298.0889"
       sodipodi:arg1="2.3680704"
       sodipodi:arg2="3.1534686"
       inkscape:rounded="0.13"
       inkscape:randomized="2.7755576e-17"
       d="m 1774.2473,1595.8314 c -54.1482,-55.45 -48.3699,-541.9875 7.08,-596.13581 55.45,-54.14829 541.9875,-48.36995 596.1358,7.08001 54.1483,55.4499 48.3699,541.9875 -7.08,596.1357 -55.4499,54.1483 -541.9875,48.37 -596.1358,-7.0799 z"
       transform="matrix(0.66311358,0,0,0.66311358,765.90726,607.57151)"
       inkscape:export-filename="logo.png"
       inkscape:export-xdpi="106.66666"
       inkscape:export-ydpi="106.66666" /><g
       id="g9"
       transform="translate(-473.06245,360.34222)"
       inkscape:export-filename="logo.png"
       inkscape:export-xdpi="128"
       inkscape:export-ydpi="128"><path
         fill="currentColor"
         fill-rule="evenodd"
         d="m 2450.5048,967.57311 c -1.0555,3.95276 -1.0555,8.75402 -1.0555,18.37723 0,9.62322 0,14.42446 1.0555,18.37726 2.8722,10.7038 11.2329,19.0646 21.9368,21.9368 3.9527,1.0554 8.754,1.0554 18.3772,1.0554 9.6232,0 14.4245,0 18.3772,-1.0554 10.7039,-2.8722 19.0646,-11.233 21.9368,-21.9368 1.0555,-3.9528 1.0555,-8.75404 1.0555,-18.37726 0,-9.62321 0,-14.42447 -1.0348,-18.37723 -2.8759,-10.70909 -11.2457,-19.07098 -21.9575,-21.93679 -3.9734,-1.05545 -8.7747,-1.05545 -18.3979,-1.05545 -9.6232,0 -14.4245,0 -18.3772,1.05545 -10.7039,2.87221 -19.0646,11.23295 -21.9368,21.93679 m 249.3757,0 c -1.0554,3.95276 -1.0554,8.75402 -1.0554,18.37723 0,9.62322 0,14.42446 1.0554,18.37726 2.8767,10.72 11.2375,19.0808 21.9368,21.9368 3.9528,1.0554 8.7541,1.0554 18.3773,1.0554 9.6232,0 14.4451,0 18.3772,-1.0554 10.7038,-2.8722 19.0646,-11.233 21.9368,-21.9368 1.0554,-3.9528 1.0554,-8.75404 1.0554,-18.37726 0,-9.62321 0,-14.42447 -1.0554,-18.37723 -2.8722,-10.70384 -11.233,-19.06458 -21.9368,-21.93679 -3.9528,-1.05545 -8.754,-1.05545 -18.3772,-1.05545 -9.6232,0 -14.4452,0 -18.3773,1.05545 -10.7038,2.87221 -19.0645,11.23295 -21.9368,21.93679 m -126.24,18.41863 c 0,-9.62322 0,-14.42448 1.0555,-18.37724 2.8722,-10.70384 11.2329,-19.06458 21.9368,-21.93679 3.9527,-1.05545 8.754,-1.05545 18.3979,-1.05545 9.6439,0 14.4245,0 18.3772,1.05545 10.7201,2.87662 19.0809,11.23743 21.9368,21.93679 1.0555,3.95276 1.0555,8.75402 1.0555,18.37724 0,9.62321 0,14.42446 -1.0348,18.37726 -2.8722,10.7038 -11.2329,19.0645 -21.9368,21.9368 -3.9734,1.0554 -8.7747,1.0554 -18.3979,1.0554 -9.6232,0 -14.4245,0 -18.3772,-1.0554 -10.7039,-2.8723 -19.0646,-11.233 -21.9368,-21.9368 -1.0762,-3.9528 -1.0762,-8.75405 -1.0762,-18.37726 m -123.115,105.75206 c -1.0555,3.9528 -1.0555,8.754 -1.0555,18.3773 0,9.6232 0,14.4244 1.0555,18.3772 2.8722,10.7038 11.2329,19.0646 21.9368,21.9368 3.9527,1.0554 8.754,1.0554 18.3772,1.0554 9.6232,0 14.4245,0 18.3772,-1.0554 10.7039,-2.8722 19.0646,-11.233 21.9368,-21.9368 1.0555,-3.9528 1.0555,-8.754 1.0555,-18.3772 0,-9.6233 0,-14.4245 -1.0348,-18.3773 -2.8722,-10.7038 -11.2329,-19.0646 -21.9368,-21.9368 -3.9734,-1.0554 -8.7747,-1.0554 -18.3979,-1.0554 -9.6232,0 -14.4245,0 -18.3772,1.0554 -10.7039,2.8722 -19.0646,11.233 -21.9368,21.9368 m 247.2855,18.4186 c 0,-9.6232 0,-14.4244 1.0555,-18.3772 2.8722,-10.7038 11.2329,-19.0646 21.9368,-21.9368 3.9527,-1.0554 8.754,-1.0554 18.3772,-1.0554 9.6232,0 14.4452,0 18.3772,1.0554 10.7201,2.8766 19.0809,11.2374 21.9368,21.9368 1.0555,3.9528 1.0555,8.754 1.0555,18.3772 0,9.6232 0,14.4245 -1.0348,18.3773 -2.8722,10.7038 -11.2329,19.0645 -21.9368,21.9368 -3.9734,1.0554 -8.7747,1.0554 -18.3979,1.0554 -9.6232,0 -14.4452,0 -18.3772,-1.0554 -10.7039,-2.8723 -19.0646,-11.233 -21.9368,-21.9368 -1.0555,-3.9528 -1.0555,-8.7541 -1.0555,-18.3773 m -123.1357,-18.4186 c -1.0555,3.9528 -1.0555,8.754 -1.0555,18.3772 0,9.6233 0,14.4245 1.0555,18.3773 2.8766,10.72 11.2374,19.0808 21.9368,21.9368 3.9527,1.0554 8.754,1.0554 18.3772,1.0554 9.6232,0 14.4245,0 18.3772,-1.0554 10.7039,-2.8722 19.0646,-11.233 21.9368,-21.9368 1.0555,-3.9528 1.0555,-8.754 1.0555,-18.3773 0,-9.6232 0,-14.4244 -1.0555,-18.3772 -2.8722,-10.7038 -11.2329,-19.0646 -21.9368,-21.9368 -3.9527,-1.0554 -8.754,-1.0554 -18.3772,-1.0554 -9.6232,0 -14.4245,0 -18.3772,1.0554 -10.7039,2.8722 -19.0646,11.233 -21.9368,21.9368 m -125.2053,142.5891 c 0,-9.6232 0,-14.4452 1.0555,-18.3772 2.8722,-10.7039 11.2329,-19.0646 21.9368,-21.9368 3.9527,-1.0555 8.754,-1.0555 18.3772,-1.0555 9.6232,0 14.4245,0 18.3772,1.0555 10.7201,2.8766 19.0809,11.2374 21.9368,21.9368 1.0555,3.9527 1.0555,8.754 1.0555,18.3772 0,9.6232 0,14.4452 -1.0348,18.3772 -2.8722,10.7039 -11.2329,19.0646 -21.9368,21.9368 -3.9734,1.0555 -8.7747,1.0555 -18.3979,1.0555 -9.6232,0 -14.4245,0 -18.3772,-1.0555 -10.7039,-2.8722 -19.0646,-11.2329 -21.9368,-21.9368 -1.0555,-3.9527 -1.0555,-8.754 -1.0555,-18.3772 m 250.4105,-18.6254 c -1.0554,3.9528 -1.0554,8.7541 -1.0554,18.3773 0,9.6232 0,14.4451 1.0554,18.3772 2.8767,10.7201 11.2375,19.0809 21.9368,21.9368 3.9528,1.0554 8.7541,1.0554 18.3773,1.0554 9.6232,0 14.4451,0 18.3772,-1.0554 10.7038,-2.8722 19.0646,-11.233 21.9368,-21.9368 1.0554,-3.9528 1.0554,-8.754 1.0554,-18.3772 0,-9.6232 0,-14.4452 -1.0554,-18.3773 -2.8722,-10.7038 -11.233,-19.0645 -21.9368,-21.9368 -3.9528,-1.0554 -8.754,-1.0554 -18.3772,-1.0554 -9.6232,0 -14.4452,0 -18.3773,1.0554 -10.7038,2.8723 -19.0645,11.233 -21.9368,21.9368 m -126.24,18.6256 c 0,-9.6232 0,-14.4452 1.0555,-18.3772 2.8722,-10.7039 11.2329,-19.0646 21.9368,-21.9368 3.9527,-1.0555 8.754,-1.0555 18.3772,-1.0555 9.6232,0 14.4245,0 18.3772,1.0555 10.7201,2.8766 19.0809,11.2374 21.9368,21.9368 1.0555,3.9527 1.0555,8.754 1.0555,18.3772 0,9.6232 0,14.4452 -1.0348,18.3772 -2.8722,10.7039 -11.2329,19.0646 -21.9368,21.9368 -3.9734,1.0555 -8.7747,1.0555 -18.3979,1.0555 -9.6232,0 -14.4245,0 -18.3772,-1.0555 -10.7039,-2.8722 -19.0646,-11.2329 -21.9368,-21.9368 -1.0555,-3.9527 -1.0555,-8.754 -1.0555,-18.3772"
         clip-rule="evenodd"
         id="path4"
         style="fill:#a78bfa;fill-opacity:1;stroke:none;stroke-width:11.3386;stroke-dasharray:none;stroke-opacity:1;paint-order:fill markers stroke"
         sodipodi:nodetypes="csccsccsccscccsccsccsccscccccsccsccsccccsccsccsccscccccsccsccsccccsccsccsccscccccsccsccsccccsccsccsccscccccsccsccsccc" /><path
         d="m 2740.1753,1192.7155 c -9.6232,0 -14.4449,-7e-4 -18.377,1.0547 -10.7038,2.8722 -19.0652,11.2337 -21.9375,21.9375 -1.0554,3.9528 -1.0547,8.7537 -1.0547,18.377 0,9.6232 -7e-4,14.4448 1.0547,18.3769 2.8767,10.7201 11.2382,19.0816 21.9375,21.9375 3.9528,1.0555 8.7538,1.0547 18.377,1.0547 9.6232,0 14.4448,8e-4 18.3769,-1.0547 10.7038,-2.8722 19.0653,-11.2336 21.9375,-21.9375 1.0554,-3.9527 1.0547,-8.7537 1.0547,-18.3769 0,-9.6232 7e-4,-14.4449 -1.0547,-18.377 -2.8722,-10.7038 -11.2337,-19.0653 -21.9375,-21.9375 -3.9528,-1.0554 -8.7537,-1.0547 -18.3769,-1.0547 z"
         style="clip-rule:evenodd;fill:#11ffaa;fill-opacity:1;fill-rule:evenodd;stroke:#11ffaa;stroke-width:2;stroke-dasharray:none;stroke-opacity:1;paint-order:fill markers stroke"
         id="path5" /><path
         d="m 2614.9897,1192.9636 c -9.6232,0 -14.4243,-8e-4 -18.3769,1.0547 -10.704,2.8722 -19.0634,11.2336 -21.9356,21.9375 -1.0555,3.932 -1.0566,8.7537 -1.0566,18.3769 0,9.6232 0,14.4242 1.0566,18.377 2.8722,10.7038 11.2317,19.0652 21.9356,21.9375 3.9527,1.0554 8.7537,1.0546 18.3769,1.0546 9.6232,0 14.425,8e-4 18.3984,-1.0546 10.7039,-2.8723 19.0653,-11.2337 21.9375,-21.9375 1.0348,-3.9321 1.0332,-8.7538 1.0332,-18.377 0,-9.6232 9e-4,-14.4242 -1.0546,-18.3769 -2.8559,-10.6994 -11.2174,-19.0609 -21.9375,-21.9375 -3.9527,-1.0555 -8.7538,-1.0547 -18.377,-1.0547 z"
         style="clip-rule:evenodd;fill:#11ffaa;fill-opacity:1;fill-rule:evenodd;stroke:#11ffaa;stroke-width:2;stroke-dasharray:none;stroke-opacity:1;paint-order:fill markers stroke"
         id="path6" /><path
         d="m 2490.8198,1068.7507 c -9.6232,0 -14.4243,10e-4 -18.377,1.0566 -10.7039,2.8722 -19.0653,11.2318 -21.9375,21.9356 -1.0555,3.9528 -1.0547,8.7557 -1.0547,18.3789 0,9.6232 -8e-4,14.4242 1.0547,18.377 2.8722,10.7038 11.2336,19.0633 21.9375,21.9355 3.9527,1.0554 8.7538,1.0566 18.377,1.0566 9.6232,0 14.4242,-10e-4 18.3769,-1.0566 10.7039,-2.8722 19.0653,-11.2317 21.9375,-21.9355 1.0555,-3.9528 1.0547,-8.7538 1.0547,-18.377 0,-9.6232 -3e-4,-14.4261 -1.0351,-18.3789 -2.8722,-10.7038 -11.2317,-19.0634 -21.9356,-21.9356 -3.9734,-1.0554 -8.7752,-1.0566 -18.3984,-1.0566 z"
         style="clip-rule:evenodd;fill:#11ffaa;fill-opacity:1;fill-rule:evenodd;stroke:#11ffaa;stroke-width:2;stroke-dasharray:none;stroke-opacity:1;paint-order:fill markers stroke"
         id="path7" /><path
         d="m 2614.9663,1068.7507 c -9.6232,0 -14.4243,10e-4 -18.377,1.0566 -10.7039,2.8723 -19.0653,11.2318 -21.9375,21.9356 -1.0555,3.9528 -1.0547,8.7557 -1.0547,18.3789 0,9.6232 -8e-4,14.4242 1.0547,18.377 2.8766,10.72 11.2381,19.0796 21.9375,21.9355 3.9527,1.0554 8.7538,1.0566 18.377,1.0566 9.6232,0 14.4242,-10e-4 18.3769,-1.0566 10.7039,-2.8722 19.0634,-11.2317 21.9356,-21.9355 1.0555,-3.9528 1.0566,-8.7538 1.0566,-18.377 0,-9.6232 0,-14.4261 -1.0566,-18.3789 -2.8722,-10.7038 -11.2317,-19.0634 -21.9356,-21.9356 -3.9527,-1.0554 -8.7537,-1.0566 -18.3769,-1.0566 z"
         style="clip-rule:evenodd;fill:#11ffaa;fill-opacity:1;fill-rule:evenodd;stroke:#11ffaa;stroke-width:2;stroke-dasharray:none;stroke-opacity:1;paint-order:fill markers stroke"
         id="path8" /><path
         d="m 2740.1753,944.58079 c -9.6232,0 -14.4449,-7.6e-4 -18.377,1.05469 -10.7038,2.87221 -19.0652,11.23366 -21.9375,21.9375 -1.0554,3.95276 -1.0547,8.75374 -1.0547,18.37695 0,9.62322 -7e-4,14.42417 1.0547,18.37697 2.8767,10.72 11.2382,19.0816 21.9375,21.9375 3.9528,1.0554 8.7538,1.0547 18.377,1.0547 9.6232,0 14.4448,7e-4 18.3769,-1.0547 10.7038,-2.8722 19.0653,-11.2337 21.9375,-21.9375 1.0554,-3.9528 1.0547,-8.75375 1.0547,-18.37697 0,-9.62321 7e-4,-14.42419 -1.0547,-18.37695 -2.8722,-10.70384 -11.2337,-19.06529 -21.9375,-21.9375 -3.9528,-1.05545 -8.7538,-1.05469 -18.3769,-1.05469 z"
         style="clip-rule:evenodd;fill:#11ffaa;fill-opacity:1;fill-rule:evenodd;stroke:#11ffaa;stroke-width:2;stroke-dasharray:none;stroke-opacity:1;paint-order:fill markers stroke"
         id="path9" /></g><g
       id="g14"
       style="display:none"><rect
         style="fill:#ffddaa;fill-opacity:1;fill-rule:evenodd;stroke:none;stroke-width:11.3387;stroke-linecap:round;stroke-dasharray:none;stroke-opacity:1;paint-order:fill markers stroke"
         id="rect9"
         width="90"
         height="45"
         x="2274.4912"
         y="507.82571"
         rx="11"
         ry="11" /><rect
         style="fill:#ffddaa;fill-opacity:1;fill-rule:evenodd;stroke:none;stroke-width:11.3387;stroke-linecap:round;stroke-dasharray:none;stroke-opacity:1;paint-order:fill markers stroke"
         id="rect10"
         width="90"
         height="45"
         x="2274.4912"
         y="758.71173"
         rx="11"
         ry="11" /><rect
         style="fill:#ffddaa;fill-opacity:1;fill-rule:evenodd;stroke:none;stroke-width:11.3387;stroke-linecap:round;stroke-dasharray:none;stroke-opacity:1;paint-order:fill markers stroke"
         id="rect11"
         width="90"
         height="45"
         x="2274.4912"
         y="640.91754"
         rx="11"
         ry="11" /><rect
         style="fill:#ffddaa;fill-opacity:1;fill-rule:evenodd;stroke:none;stroke-width:11.3387;stroke-linecap:round;stroke-dasharray:none;stroke-opacity:1;paint-order:fill markers stroke"
         id="rect12"
         width="50"
         height="80"
         x="2417.5715"
         y="381.73187"
         rx="11"
         ry="11" /><rect
         style="fill:#ffddaa;fill-opacity:1;fill-rule:evenodd;stroke:none;stroke-width:11.3387;stroke-linecap:round;stroke-dasharray:none;stroke-opacity:1;paint-order:fill markers stroke"
         id="rect13"
         width="50"
         height="80"
         x="2542.1257"
         y="381.73187"
         rx="11"
         ry="11" /><rect
         style="fill:#ffddaa;fill-opacity:1;fill-rule:evenodd;stroke:none;stroke-width:11.3387;stroke-linecap:round;stroke-dasharray:none;stroke-opacity:1;paint-order:fill markers stroke"
         id="rect14"
         width="50"
         height="80"
         x="2661.0686"
         y="381.73187"
         rx="11"
         ry="11" /></g></g></svg>
