<?xml version="1.0" encoding="UTF-8" standalone="no"?>
<!-- Created with Inkscape (http://www.inkscape.org/) -->

<svg
   width="450"
   height="450"
   viewBox="0 0 450 450"
   version="1.1"
   id="svg1"
   xml:space="preserve"
   xmlns="http://www.w3.org/2000/svg"
   xmlns:svg="http://www.w3.org/2000/svg"><defs
     id="defs1" /><g
     id="g15"
     style="fill:#cccc55"
     transform="translate(-1917.435,-1245.4835)"><path
       style="fill:#220533;fill-opacity:1;fill-rule:evenodd;stroke:none;stroke-width:3.01607;stroke-linecap:round;stroke-dasharray:none;stroke-opacity:1"
       id="path3"
       d="m 1774.2473,1595.8314 c -54.1482,-55.45 -48.3699,-541.9875 7.08,-596.13581 55.45,-54.14829 541.9875,-48.36995 596.1358,7.08001 54.1483,55.4499 48.3699,541.9875 -7.08,596.1357 -55.4499,54.1483 -541.9875,48.37 -596.1358,-7.0799 z"
       transform="matrix(0.66311358,0,0,0.66311358,765.90726,607.57151)" /><g
       id="g9"
       transform="translate(-473.06245,360.34222)"><path
         fill="currentColor"
         fill-rule="evenodd"
         d="m 2450.5048,967.57311 c -1.0555,3.95276 -1.0555,8.75402 -1.0555,18.37723 0,9.62322 0,14.42446 1.0555,18.37726 2.8722,10.7038 11.2329,19.0646 21.9368,21.9368 3.9527,1.0554 8.754,1.0554 18.3772,1.0554 9.6232,0 14.4245,0 18.3772,-1.0554 10.7039,-2.8722 19.0646,-11.233 21.9368,-21.9368 1.0555,-3.9528 1.0555,-8.75404 1.0555,-18.37726 0,-9.62321 0,-14.42447 -1.0348,-18.37723 -2.8759,-10.70909 -11.2457,-19.07098 -21.9575,-21.93679 -3.9734,-1.05545 -8.7747,-1.05545 -18.3979,-1.05545 -9.6232,0 -14.4245,0 -18.3772,1.05545 -10.7039,2.87221 -19.0646,11.23295 -21.9368,21.93679 m 249.3757,0 c -1.0554,3.95276 -1.0554,8.75402 -1.0554,18.37723 0,9.62322 0,14.42446 1.0554,18.37726 2.8767,10.72 11.2375,19.0808 21.9368,21.9368 3.9528,1.0554 8.7541,1.0554 18.3773,1.0554 9.6232,0 14.4451,0 18.3772,-1.0554 10.7038,-2.8722 19.0646,-11.233 21.9368,-21.9368 1.0554,-3.9528 1.0554,-8.75404 1.0554,-18.37726 0,-9.62321 0,-14.42447 -1.0554,-18.37723 -2.8722,-10.70384 -11.233,-19.06458 -21.9368,-21.93679 -3.9528,-1.05545 -8.754,-1.05545 -18.3772,-1.05545 -9.6232,0 -14.4452,0 -18.3773,1.05545 -10.7038,2.87221 -19.0645,11.23295 -21.9368,21.93679 m -126.24,18.41863 c 0,-9.62322 0,-14.42448 1.0555,-18.37724 2.8722,-10.70384 11.2329,-19.06458 21.9368,-21.93679 3.9527,-1.05545 8.754,-1.05545 18.3979,-1.05545 9.6439,0 14.4245,0 18.3772,1.05545 10.7201,2.87662 19.0809,11.23743 21.9368,21.93679 1.0555,3.95276 1.0555,8.75402 1.0555,18.37724 0,9.62321 0,14.42446 -1.0348,18.37726 -2.8722,10.7038 -11.2329,19.0645 -21.9368,21.9368 -3.9734,1.0554 -8.7747,1.0554 -18.3979,1.0554 -9.6232,0 -14.4245,0 -18.3772,-1.0554 -10.7039,-2.8723 -19.0646,-11.233 -21.9368,-21.9368 -1.0762,-3.9528 -1.0762,-8.75405 -1.0762,-18.37726 m -123.115,105.75206 c -1.0555,3.9528 -1.0555,8.754 -1.0555,18.3773 0,9.6232 0,14.4244 1.0555,18.3772 2.8722,10.7038 11.2329,19.0646 21.9368,21.9368 3.9527,1.0554 8.754,1.0554 18.3772,1.0554 9.6232,0 14.4245,0 18.3772,-1.0554 10.7039,-2.8722 19.0646,-11.233 21.9368,-21.9368 1.0555,-3.9528 1.0555,-8.754 1.0555,-18.3772 0,-9.6233 0,-14.4245 -1.0348,-18.3773 -2.8722,-10.7038 -11.2329,-19.0646 -21.9368,-21.9368 -3.9734,-1.0554 -8.7747,-1.0554 -18.3979,-1.0554 -9.6232,0 -14.4245,0 -18.3772,1.0554 -10.7039,2.8722 -19.0646,11.233 -21.9368,21.9368 m 247.2855,18.4186 c 0,-9.6232 0,-14.4244 1.0555,-18.3772 2.8722,-10.7038 11.2329,-19.0646 21.9368,-21.9368 3.9527,-1.0554 8.754,-1.0554 18.3772,-1.0554 9.6232,0 14.4452,0 18.3772,1.0554 10.7201,2.8766 19.0809,11.2374 21.9368,21.9368 1.0555,3.9528 1.0555,8.754 1.0555,18.3772 0,9.6232 0,14.4245 -1.0348,18.3773 -2.8722,10.7038 -11.2329,19.0645 -21.9368,21.9368 -3.9734,1.0554 -8.7747,1.0554 -18.3979,1.0554 -9.6232,0 -14.4452,0 -18.3772,-1.0554 -10.7039,-2.8723 -19.0646,-11.233 -21.9368,-21.9368 -1.0555,-3.9528 -1.0555,-8.7541 -1.0555,-18.3773 m -123.1357,-18.4186 c -1.0555,3.9528 -1.0555,8.754 -1.0555,18.3772 0,9.6233 0,14.4245 1.0555,18.3773 2.8766,10.72 11.2374,19.0808 21.9368,21.9368 3.9527,1.0554 8.754,1.0554 18.3772,1.0554 9.6232,0 14.4245,0 18.3772,-1.0554 10.7039,-2.8722 19.0646,-11.233 21.9368,-21.9368 1.0555,-3.9528 1.0555,-8.754 1.0555,-18.3773 0,-9.6232 0,-14.4244 -1.0555,-18.3772 -2.8722,-10.7038 -11.2329,-19.0646 -21.9368,-21.9368 -3.9527,-1.0554 -8.754,-1.0554 -18.3772,-1.0554 -9.6232,0 -14.4245,0 -18.3772,1.0554 -10.7039,2.8722 -19.0646,11.233 -21.9368,21.9368 m -125.2053,142.5891 c 0,-9.6232 0,-14.4452 1.0555,-18.3772 2.8722,-10.7039 11.2329,-19.0646 21.9368,-21.9368 3.9527,-1.0555 8.754,-1.0555 18.3772,-1.0555 9.6232,0 14.4245,0 18.3772,1.0555 10.7201,2.8766 19.0809,11.2374 21.9368,21.9368 1.0555,3.9527 1.0555,8.754 1.0555,18.3772 0,9.6232 0,14.4452 -1.0348,18.3772 -2.8722,10.7039 -11.2329,19.0646 -21.9368,21.9368 -3.9734,1.0555 -8.7747,1.0555 -18.3979,1.0555 -9.6232,0 -14.4245,0 -18.3772,-1.0555 -10.7039,-2.8722 -19.0646,-11.2329 -21.9368,-21.9368 -1.0555,-3.9527 -1.0555,-8.754 -1.0555,-18.3772 m 250.4105,-18.6254 c -1.0554,3.9528 -1.0554,8.7541 -1.0554,18.3773 0,9.6232 0,14.4451 1.0554,18.3772 2.8767,10.7201 11.2375,19.0809 21.9368,21.9368 3.9528,1.0554 8.7541,1.0554 18.3773,1.0554 9.6232,0 14.4451,0 18.3772,-1.0554 10.7038,-2.8722 19.0646,-11.233 21.9368,-21.9368 1.0554,-3.9528 1.0554,-8.754 1.0554,-18.3772 0,-9.6232 0,-14.4452 -1.0554,-18.3773 -2.8722,-10.7038 -11.233,-19.0645 -21.9368,-21.9368 -3.9528,-1.0554 -8.754,-1.0554 -18.3772,-1.0554 -9.6232,0 -14.4452,0 -18.3773,1.0554 -10.7038,2.8723 -19.0645,11.233 -21.9368,21.9368 m -126.24,18.6256 c 0,-9.6232 0,-14.4452 1.0555,-18.3772 2.8722,-10.7039 11.2329,-19.0646 21.9368,-21.9368 3.9527,-1.0555 8.754,-1.0555 18.3772,-1.0555 9.6232,0 14.4245,0 18.3772,1.0555 10.7201,2.8766 19.0809,11.2374 21.9368,21.9368 1.0555,3.9527 1.0555,8.754 1.0555,18.3772 0,9.6232 0,14.4452 -1.0348,18.3772 -2.8722,10.7039 -11.2329,19.0646 -21.9368,21.9368 -3.9734,1.0555 -8.7747,1.0555 -18.3979,1.0555 -9.6232,0 -14.4245,0 -18.3772,-1.0555 -10.7039,-2.8722 -19.0646,-11.2329 -21.9368,-21.9368 -1.0555,-3.9527 -1.0555,-8.754 -1.0555,-18.3772"
         clip-rule="evenodd"
         id="path4"
         style="fill:#a78bfa;fill-opacity:1;stroke:none;stroke-width:11.3386;stroke-dasharray:none;stroke-opacity:1;paint-order:fill markers stroke" /><path
         d="m 2740.1753,1192.7155 c -9.6232,0 -14.4449,-7e-4 -18.377,1.0547 -10.7038,2.8722 -19.0652,11.2337 -21.9375,21.9375 -1.0554,3.9528 -1.0547,8.7537 -1.0547,18.377 0,9.6232 -7e-4,14.4448 1.0547,18.3769 2.8767,10.7201 11.2382,19.0816 21.9375,21.9375 3.9528,1.0555 8.7538,1.0547 18.377,1.0547 9.6232,0 14.4448,8e-4 18.3769,-1.0547 10.7038,-2.8722 19.0653,-11.2336 21.9375,-21.9375 1.0554,-3.9527 1.0547,-8.7537 1.0547,-18.3769 0,-9.6232 7e-4,-14.4449 -1.0547,-18.377 -2.8722,-10.7038 -11.2337,-19.0653 -21.9375,-21.9375 -3.9528,-1.0554 -8.7537,-1.0547 -18.3769,-1.0547 z"
         style="clip-rule:evenodd;fill:#11ffaa;fill-opacity:1;fill-rule:evenodd;stroke:#11ffaa;stroke-width:2;stroke-dasharray:none;stroke-opacity:1;paint-order:fill markers stroke"
         id="path5" /><path
         d="m 2614.9897,1192.9636 c -9.6232,0 -14.4243,-8e-4 -18.3769,1.0547 -10.704,2.8722 -19.0634,11.2336 -21.9356,21.9375 -1.0555,3.932 -1.0566,8.7537 -1.0566,18.3769 0,9.6232 0,14.4242 1.0566,18.377 2.8722,10.7038 11.2317,19.0652 21.9356,21.9375 3.9527,1.0554 8.7537,1.0546 18.3769,1.0546 9.6232,0 14.425,8e-4 18.3984,-1.0546 10.7039,-2.8723 19.0653,-11.2337 21.9375,-21.9375 1.0348,-3.9321 1.0332,-8.7538 1.0332,-18.377 0,-9.6232 9e-4,-14.4242 -1.0546,-18.3769 -2.8559,-10.6994 -11.2174,-19.0609 -21.9375,-21.9375 -3.9527,-1.0555 -8.7538,-1.0547 -18.377,-1.0547 z"
         style="clip-rule:evenodd;fill:#11ffaa;fill-opacity:1;fill-rule:evenodd;stroke:#11ffaa;stroke-width:2;stroke-dasharray:none;stroke-opacity:1;paint-order:fill markers stroke"
         id="path6" /><path
         d="m 2490.8198,1068.7507 c -9.6232,0 -14.4243,10e-4 -18.377,1.0566 -10.7039,2.8722 -19.0653,11.2318 -21.9375,21.9356 -1.0555,3.9528 -1.0547,8.7557 -1.0547,18.3789 0,9.6232 -8e-4,14.4242 1.0547,18.377 2.8722,10.7038 11.2336,19.0633 21.9375,21.9355 3.9527,1.0554 8.7538,1.0566 18.377,1.0566 9.6232,0 14.4242,-10e-4 18.3769,-1.0566 10.7039,-2.8722 19.0653,-11.2317 21.9375,-21.9355 1.0555,-3.9528 1.0547,-8.7538 1.0547,-18.377 0,-9.6232 -3e-4,-14.4261 -1.0351,-18.3789 -2.8722,-10.7038 -11.2317,-19.0634 -21.9356,-21.9356 -3.9734,-1.0554 -8.7752,-1.0566 -18.3984,-1.0566 z"
         style="clip-rule:evenodd;fill:#11ffaa;fill-opacity:1;fill-rule:evenodd;stroke:#11ffaa;stroke-width:2;stroke-dasharray:none;stroke-opacity:1;paint-order:fill markers stroke"
         id="path7" /><path
         d="m 2614.9663,1068.7507 c -9.6232,0 -14.4243,10e-4 -18.377,1.0566 -10.7039,2.8723 -19.0653,11.2318 -21.9375,21.9356 -1.0555,3.9528 -1.0547,8.7557 -1.0547,18.3789 0,9.6232 -8e-4,14.4242 1.0547,18.377 2.8766,10.72 11.2381,19.0796 21.9375,21.9355 3.9527,1.0554 8.7538,1.0566 18.377,1.0566 9.6232,0 14.4242,-10e-4 18.3769,-1.0566 10.7039,-2.8722 19.0634,-11.2317 21.9356,-21.9355 1.0555,-3.9528 1.0566,-8.7538 1.0566,-18.377 0,-9.6232 0,-14.4261 -1.0566,-18.3789 -2.8722,-10.7038 -11.2317,-19.0634 -21.9356,-21.9356 -3.9527,-1.0554 -8.7537,-1.0566 -18.3769,-1.0566 z"
         style="clip-rule:evenodd;fill:#11ffaa;fill-opacity:1;fill-rule:evenodd;stroke:#11ffaa;stroke-width:2;stroke-dasharray:none;stroke-opacity:1;paint-order:fill markers stroke"
         id="path8" /><path
         d="m 2740.1753,944.58079 c -9.6232,0 -14.4449,-7.6e-4 -18.377,1.05469 -10.7038,2.87221 -19.0652,11.23366 -21.9375,21.9375 -1.0554,3.95276 -1.0547,8.75374 -1.0547,18.37695 0,9.62322 -7e-4,14.42417 1.0547,18.37697 2.8767,10.72 11.2382,19.0816 21.9375,21.9375 3.9528,1.0554 8.7538,1.0547 18.377,1.0547 9.6232,0 14.4448,7e-4 18.3769,-1.0547 10.7038,-2.8722 19.0653,-11.2337 21.9375,-21.9375 1.0554,-3.9528 1.0547,-8.75375 1.0547,-18.37697 0,-9.62321 7e-4,-14.42419 -1.0547,-18.37695 -2.8722,-10.70384 -11.2337,-19.06529 -21.9375,-21.9375 -3.9528,-1.05545 -8.7538,-1.05469 -18.3769,-1.05469 z"
         style="clip-rule:evenodd;fill:#11ffaa;fill-opacity:1;fill-rule:evenodd;stroke:#11ffaa;stroke-width:2;stroke-dasharray:none;stroke-opacity:1;paint-order:fill markers stroke"
         id="path9" /></g></g></svg>
